  0
SECTION
  2
HEADER
  9
$ACADVER
  1
AC1009
  9
$INSBASE
 10
0.0
 20
0.0
 30
0.0
  9
$EXTMIN
 10
0.0
 20
0.0
 30
0.0
  9
$EXTMAX
 10
100.0
 20
100.0
 30
0.0
  9
$UNITMODE
 70
0
  9
$AUNITS
 70
0
  9
$ANGBASE
 50
0.0
  9
$ANGDIR
 70
0
  9
$INSUNITS
 70
4
  9
$MEASUREMENT
 70
1
  0
ENDSEC
  0
SECTION
  2
TABLES
  0
TABLE
  2
LTYPE
 70
19
  0
LTYPE
  2
CONTINUOUS
 70
0
  3
Solid
 72
65
 73
0
 40
0.0
  0
LTYPE
  2
CENTER
 70
0
  3
Center ____ _ ____ _ ____ _ ____ _ ____ _ ____
 72
65
 73
4
 40
2.0
 49
1.25
 49
-0.25
 49
0.25
 49
-0.25
  0
LTYPE
  2
CENTERX2
 70
0
  3
Center (2x) ________  __  ________  __  ________
 72
65
 73
4
 40
3.5
 49
2.5
 49
-0.25
 49
0.5
 49
-0.25
  0
LTYPE
  2
CENTER2
 70
0
  3
Center (.5x) ____ _ ____ _ ____ _ ____ _ ____
 72
65
 73
4
 40
1.0
 49
0.625
 49
-0.125
 49
0.125
 49
-0.125
  0
LTYPE
  2
DASHED
 70
0
  3
Dashed __ __ __ __ __ __ __ __ __ __ __ __ __ _
 72
65
 73
2
 40
0.6
 49
0.5
 49
-0.1
  0
LTYPE
  2
DASHEDX2
 70
0
  3
Dashed (2x) ____  ____  ____  ____  ____  ____
 72
65
 73
2
 40
1.2
 49
1.0
 49
-0.2
  0
LTYPE
  2
DASHED2
 70
0
  3
Dashed (.5x) _ _ _ _ _ _ _ _ _ _ _ _ _ _
 72
65
 73
2
 40
0.3
 49
0.25
 49
-0.05
  0
LTYPE
  2
PHANTOM
 70
0
  3
Phantom ______  __  __  ______  __  __  ______
 72
65
 73
6
 40
2.5
 49
1.25
 49
-0.25
 49
0.25
 49
-0.25
 49
0.25
 49
-0.25
  0
LTYPE
  2
PHANTOMX2
 70
0
  3
Phantom (2x)____________    ____    ____    ____________
 72
65
 73
6
 40
4.25
 49
2.5
 49
-0.25
 49
0.5
 49
-0.25
 49
0.5
 49
-0.25
  0
LTYPE
  2
PHANTOM2
 70
0
  3
Phantom (.5x) ___ _ _ ___ _ _ ___ _ _ ___ _ _ ___
 72
65
 73
6
 40
1.25
 49
0.625
 49
-0.125
 49
0.125
 49
-0.125
 49
0.125
 49
-0.125
  0
LTYPE
  2
DASHDOT
 70
0
  3
Dash dot __ . __ . __ . __ . __ . __ . __ . __
 72
65
 73
4
 40
1.4
 49
1.0
 49
-0.2
 49
0.0
 49
-0.2
  0
LTYPE
  2
DASHDOTX2
 70
0
  3
Dash dot (2x) ____  .  ____  .  ____  .  ____
 72
65
 73
4
 40
2.4
 49
2.0
 49
-0.2
 49
0.0
 49
-0.2
  0
LTYPE
  2
DASHDOT2
 70
0
  3
Dash dot (.5x) _ . _ . _ . _ . _ . _ . _ . _
 72
65
 73
4
 40
0.7
 49
0.5
 49
-0.1
 49
0.0
 49
-0.1
  0
LTYPE
  2
DOT
 70
0
  3
Dot .  .  .  .  .  .  .  .  .  .  .  .  .  .  .  .
 72
65
 73
2
 40
0.2
 49
0.0
 49
-0.2
  0
LTYPE
  2
DOTX2
 70
0
  3
Dot (2x) .    .    .    .    .    .    .    . 
 72
65
 73
2
 40
0.4
 49
0.0
 49
-0.4
  0
LTYPE
  2
DOT2
 70
0
  3
Dot (.5) . . . . . . . . . . . . . . . . . . . 
 72
65
 73
2
 40
0.1
 49
0.0
 49
-0.1
  0
LTYPE
  2
DIVIDE
 70
0
  3
Divide __ . . __ . . __ . . __ . . __ . . __
 72
65
 73
6
 40
1.6
 49
1.0
 49
-0.2
 49
0.0
 49
-0.2
 49
0.0
 49
-0.2
  0
LTYPE
  2
DIVIDEX2
 70
0
  3
Divide (2x) ____  . .  ____  . .  ____  . .  ____
 72
65
 73
6
 40
2.6
 49
2.0
 49
-0.2
 49
0.0
 49
-0.2
 49
0.0
 49
-0.2
  0
LTYPE
  2
DIVIDE2
 70
0
  3
Divide(.5x) _ . _ . _ . _ . _ . _ . _ . _
 72
65
 73
6
 40
0.8
 49
0.5
 49
-0.1
 49
0.0
 49
-0.1
 49
0.0
 49
-0.1
  0
ENDTAB
  0
TABLE
  2
LAYER
 70
5
  0
LAYER
  2
DIMENSIONS
 70
0
 62
1
  6
CONTINUOUS
  0
LAYER
  2
TABLEBACKGROUND
 70
0
 62
1
  6
CONTINUOUS
  0
LAYER
  2
TABLECONTENT
 70
0
 62
1
  6
CONTINUOUS
  0
LAYER
  2
TABLEGRID
 70
0
 62
1
  6
CONTINUOUS
  0
LAYER
  2
VIEWPORTS
 70
0
 62
7
  6
CONTINUOUS
  0
ENDTAB
  0
TABLE
  2
STYLE
 70
12
  0
STYLE
  2
STANDARD
 70
0
 40
0.0
 41
1.0
 42
1.0
 50
0.0
 71
0
  3
arial.ttf
  4

  0
STYLE
  2
ARIAL
 70
0
 40
0.0
 41
1.0
 42
1.0
 50
0.0
 71
0
  3
arial.ttf
  4

  0
STYLE
  2
ARIAL_BOLD
 70
0
 40
0.0
 41
1.0
 42
1.0
 50
0.0
 71
0
  3
arialbd.ttf
  4

  0
STYLE
  2
ARIAL_ITALIC
 70
0
 40
0.0
 41
1.0
 42
1.0
 50
0.0
 71
0
  3
ariali.ttf
  4

  0
STYLE
  2
ARIAL_BOLD_ITALIC
 70
0
 40
0.0
 41
1.0
 42
1.0
 50
0.0
 71
0
  3
arialbi.ttf
  4

  0
STYLE
  2
ARIAL_BLACK
 70
0
 40
0.0
 41
1.0
 42
1.0
 50
0.0
 71
0
  3
ariblk.ttf
  4

  0
STYLE
  2
ISOCPEUR
 70
0
 40
0.0
 41
1.0
 42
1.0
 50
0.0
 71
0
  3
isocpeur.ttf
  4

  0
STYLE
  2
ISOCPEUR_ITALIC
 70
0
 40
0.0
 41
1.0
 42
1.0
 50
0.0
 71
0
  3
isocpeui.ttf
  4

  0
STYLE
  2
TIMES
 70
0
 40
0.0
 41
1.0
 42
1.0
 50
0.0
 71
0
  3
times.ttf
  4

  0
STYLE
  2
TIMES_BOLD
 70
0
 40
0.0
 41
1.0
 42
1.0
 50
0.0
 71
0
  3
timesbd.ttf
  4

  0
STYLE
  2
TIMES_ITALIC
 70
0
 40
0.0
 41
1.0
 42
1.0
 50
0.0
 71
0
  3
timesi.ttf
  4

  0
STYLE
  2
TIMES_BOLD_ITALIC
 70
0
 40
0.0
 41
1.0
 42
1.0
 50
0.0
 71
0
  3
timesbi.ttf
  4

  0
ENDTAB
  0
TABLE
  2
VIEW
 70
0
  0
ENDTAB
  0
TABLE
  2
APPID
 70
1
  0
APPID
  2
DXFWRITE
 70
0
  0
ENDTAB
  0
TABLE
  2
VPORT
 70
0
  0
ENDTAB
  0
TABLE
  2
UCS
 70
0
  0
ENDTAB
  0
ENDSEC
  0
SECTION
  2
BLOCKS
  0
ENDSEC
  0
SECTION
  2
ENTITIES
  0
VIEWPORT
  8
VIEWPORTS
 67
1
 10
0.0
 20
0.0
 30
0.0
 40
1.0
 41
1.0
 68
1
 69
1
1001
ACAD
1000
MVIEW
1002
{
1070
16
1010
0.0
1020
0.0
1030
0.0
1010
0.0
1020
0.0
1030
0.0
1040
0.0
1040
1.0
1040
0.0
1040
0.0
1040
50.0
1040
0.0
1040
0.0
1070
0
1070
100
1070
1
1070
3
1070
0
1070
0
1070
0
1070
0
1040
0.0
1040
0.0
1040
0.0
1040
0.1
1040
0.1
1040
0.1
1040
0.1
1070
0
1002
{
1002
}
1002
}
  0
POLYLINE
  8
0
 66
1
 10
0.0
 20
0.0
 30
0.0
 70
1
  0
VERTEX
  8
0
 10
-1.365249262765398
 20
-22.923487621316685
 30
0.0
  0
VERTEX
  8
0
 10
-2.254248782705657
 20
-22.859987655606666
 30
0.0
  0
VERTEX
  8
0
 10
-2.6987485426757867
 20
-22.796487689896647
 30
0.0
  0
VERTEX
  8
0
 10
-3.0797483369358982
 20
-22.66948775847661
 30
0.0
  0
VERTEX
  8
0
 10
-3.7782479597461016
 20
-22.66948775847661
 30
0.0
  0
VERTEX
  8
0
 10
-4.095747788296194
 20
-22.60598779276659
 30
0.0
  0
VERTEX
  8
0
 10
-4.730747445396379
 20
-22.415487895636534
 30
0.0
  0
VERTEX
  8
0
 10
-5.0482472739464725
 20
-22.415487895636534
 30
0.0
  0
VERTEX
  8
0
 10
-5.683246931046657
 20
-22.22498799850648
 30
0.0
  0
VERTEX
  8
0
 10
-6.445246519566879
 20
-21.970988135666406
 30
0.0
  0
VERTEX
  8
0
 10
-7.080246176667064
 20
-21.78048823853635
 30
0.0
  0
VERTEX
  8
0
 10
-7.397746005217157
 20
-21.589988341406293
 30
0.0
  0
VERTEX
  8
0
 10
-7.588245902347213
 20
-21.589988341406293
 30
0.0
  0
VERTEX
  8
0
 10
-7.778745799477268
 20
-21.462988409986256
 30
0.0
  0
VERTEX
  8
0
 10
-7.969245696607324
 20
-21.462988409986256
 30
0.0
  0
VERTEX
  8
0
 10
-8.223245559447397
 20
-21.335988478566218
 30
0.0
  0
VERTEX
  8
0
 10
-8.667745319417527
 20
-21.081988615726146
 30
0.0
  0
VERTEX
  8
0
 10
-8.858245216547584
 20
-21.081988615726146
 30
0.0
  0
VERTEX
  8
0
 10
-8.98524514796762
 20
-21.01848865001613
 30
0.0
  0
VERTEX
  8
0
 10
-9.112245079387657
 20
-20.95498868430611
 30
0.0
  0
VERTEX
  8
0
 10
-9.42974490793775
 20
-20.700988821466034
 30
0.0
  0
VERTEX
  8
0
 10
-9.87424466790788
 20
-20.573988890045996
 30
0.0
  0
VERTEX
  8
0
 10
-10.001244599327917
 20
-20.51048892433598
 30
0.0
  0
VERTEX
  8
0
 10
-10.25524446216799
 20
-20.319989027205928
 30
0.0
  0
VERTEX
  8
0
 10
-10.509244325008066
 20
-20.25648906149591
 30
0.0
  0
VERTEX
  8
0
 10
-10.763244187848137
 20
-20.12948913007587
 30
0.0
  0
VERTEX
  8
0
 10
-11.080744016398231
 20
-19.811989301525777
 30
0.0
  0
VERTEX
  8
0
 10
-11.271243913528286
 20
-19.74848933581576
 30
0.0
  0
VERTEX
  8
0
 10
-11.461743810658342
 20
-19.557989438685702
 30
0.0
  0
VERTEX
  8
0
 10
-11.969743536338491
 20
-19.367489541555646
 30
0.0
  0
VERTEX
  8
0
 10
-12.541243227728657
 20
-19.049989713005555
 30
0.0
  0
VERTEX
  8
0
 10
-12.731743124858712
 20
-18.922989781585517
 30
0.0
  0
VERTEX
  8
0
 10
-12.922243021988768
 20
-18.79598985016548
 30
0.0
  0
VERTEX
  8
0
 10
-13.176242884828842
 20
-18.605489953035427
 30
0.0
  0
VERTEX
  8
0
 10
-13.430242747668917
 20
-18.41499005590537
 30
0.0
  0
VERTEX
  8
0
 10
-13.747742576219009
 20
-18.160990193065295
 30
0.0
  0
VERTEX
  8
0
 10
-14.382742233319195
 20
-17.58949050167513
 30
0.0
  0
VERTEX
  8
0
 10
-14.573242130449248
 20
-17.52599053596511
 30
0.0
  0
VERTEX
  8
0
 10
-15.970241376069655
 20
-16.128991290344704
 30
0.0
  0
VERTEX
  8
0
 10
-16.605241033169843
 20
-15.430491667534499
 30
0.0
  0
VERTEX
  8
0
 10
-17.17674072456001
 20
-14.668492079014277
 30
0.0
  0
VERTEX
  8
0
 10
-17.621240484530137
 20
-14.223992319044147
 30
0.0
  0
VERTEX
  8
0
 10
-17.748240415950175
 20
-13.969992456204075
 30
0.0
  0
VERTEX
  8
0
 10
-18.00224027879025
 20
-13.715992593364
 30
0.0
  0
VERTEX
  8
0
 10
-18.129240210210288
 20
-13.461992730523926
 30
0.0
  0
VERTEX
  8
0
 10
-18.38324007305036
 20
-13.207992867683851
 30
0.0
  0
VERTEX
  8
0
 10
-18.38324007305036
 20
-13.080992936263813
 30
0.0
  0
VERTEX
  8
0
 10
-18.637239935890435
 20
-12.82699307342374
 30
0.0
  0
VERTEX
  8
0
 10
-18.764239867310472
 20
-12.50949324487365
 30
0.0
  0
VERTEX
  8
0
 10
-19.018239730150547
 20
-12.255493382033574
 30
0.0
  0
VERTEX
  8
0
 10
-19.145239661570585
 20
-12.06499348490352
 30
0.0
  0
VERTEX
  8
0
 10
-19.145239661570585
 20
-11.937993553483482
 30
0.0
  0
VERTEX
  8
0
 10
-19.27223959299062
 20
-11.747493656353425
 30
0.0
  0
VERTEX
  8
0
 10
-19.526239455830694
 20
-11.429993827803333
 30
0.0
  0
VERTEX
  8
0
 10
-19.653239387250732
 20
-11.239493930673277
 30
0.0
  0
VERTEX
  8
0
 10
-19.653239387250732
 20
-11.11249399925324
 30
0.0
  0
VERTEX
  8
0
 10
-19.843739284380785
 20
-10.921994102123184
 30
0.0
  0
VERTEX
  8
0
 10
-19.970739215800823
 20
-10.667994239283109
 30
0.0
  0
VERTEX
  8
0
 10
-20.351739010060935
 20
-9.969494616472907
 30
0.0
  0
VERTEX
  8
0
 10
-20.669238838611026
 20
-9.143995062242666
 30
0.0
  0
VERTEX
  8
0
 10
-20.796238770031064
 20
-9.016995130822629
 30
0.0
  0
VERTEX
  8
0
 10
-20.859738735741082
 20
-8.889995199402591
 30
0.0
  0
VERTEX
  8
0
 10
-20.9232387014511
 20
-8.5724953708525
 30
0.0
  0
VERTEX
  8
0
 10
-21.05023863287114
 20
-8.445495439432463
 30
0.0
  0
VERTEX
  8
0
 10
-21.177238564291176
 20
-8.12799561088237
 30
0.0
  0
VERTEX
  8
0
 10
-21.240738530001195
 20
-7.746995816622259
 30
0.0
  0
VERTEX
  8
0
 10
-21.304238495711214
 20
-7.556495919492203
 30
0.0
  0
VERTEX
  8
0
 10
-21.431238427131248
 20
-7.4294959880721665
 30
0.0
  0
VERTEX
  8
0
 10
-21.494738392841267
 20
-7.0484961938120545
 30
0.0
  0
VERTEX
  8
0
 10
-21.621738324261305
 20
-6.857996296682
 30
0.0
  0
VERTEX
  8
0
 10
-21.685238289971323
 20
-6.667496399551944
 30
0.0
  0
VERTEX
  8
0
 10
-21.685238289971323
 20
-6.349996571001851
 30
0.0
  0
VERTEX
  8
0
 10
-21.81223822139136
 20
-6.1594966738717964
 30
0.0
  0
VERTEX
  8
0
 10
-21.87573818710138
 20
-5.651496948191648
 30
0.0
  0
VERTEX
  8
0
 10
-22.066238084231436
 20
-5.206997188221518
 30
0.0
  0
VERTEX
  8
0
 10
-22.320237947071504
 20
-4.190997736861222
 30
0.0
  0
VERTEX
  8
0
 10
-22.383737912781527
 20
-3.809997942601111
 30
0.0
  0
VERTEX
  8
0
 10
-22.510737844201564
 20
-2.9209984226608516
 30
0.0
  0
VERTEX
  8
0
 10
-22.701237741331617
 20
-1.5874991427504628
 30
0.0
  0
VERTEX
  8
0
 10
-22.76473770704164
 20
0.12699993142003704
 30
0.0
  0
VERTEX
  8
0
 10
-22.76473770704164
 20
0.4444997599701296
 30
0.0
  0
VERTEX
  8
0
 10
-22.701237741331617
 20
1.841499005590537
 30
0.0
  0
VERTEX
  8
0
 10
-22.637737775621602
 20
2.603498594110759
 30
0.0
  0
VERTEX
  8
0
 10
-22.510737844201564
 20
2.9844983883708704
 30
0.0
  0
VERTEX
  8
0
 10
-22.510737844201564
 20
3.682998011181074
 30
0.0
  0
VERTEX
  8
0
 10
-22.320237947071504
 20
4.31799766828126
 30
0.0
  0
VERTEX
  8
0
 10
-22.320237947071504
 20
4.762497428251389
 30
0.0
  0
VERTEX
  8
0
 10
-22.193238015651474
 20
5.016497291091463
 30
0.0
  0
VERTEX
  8
0
 10
-22.193238015651474
 20
5.3339971196415545
 30
0.0
  0
VERTEX
  8
0
 10
-22.002738118521417
 20
5.778496879611685
 30
0.0
  0
VERTEX
  8
0
 10
-21.748738255681342
 20
6.857996296682
 30
0.0
  0
VERTEX
  8
0
 10
-21.685238289971323
 20
7.111996159522073
 30
0.0
  0
VERTEX
  8
0
 10
-21.558238358551286
 20
7.23899609094211
 30
0.0
  0
VERTEX
  8
0
 10
-21.558238358551286
 20
7.4294959880721665
 30
0.0
  0
VERTEX
  8
0
 10
-21.304238495711214
 20
7.937495713752314
 30
0.0
  0
VERTEX
  8
0
 10
-21.304238495711214
 20
8.12799561088237
 30
0.0
  0
VERTEX
  8
0
 10
-21.177238564291176
 20
8.254995542302407
 30
0.0
  0
VERTEX
  8
0
 10
-21.05023863287114
 20
8.5724953708525
 30
0.0
  0
VERTEX
  8
0
 10
-20.9232387014511
 20
9.016995130822629
 30
0.0
  0
VERTEX
  8
0
 10
-20.859738735741082
 20
9.143995062242666
 30
0.0
  0
VERTEX
  8
0
 10
-20.732738804321045
 20
9.270994993662704
 30
0.0
  0
VERTEX
  8
0
 10
-20.669238838611026
 20
9.39799492508274
 30
0.0
  0
VERTEX
  8
0
 10
-20.54223890719099
 20
9.84249468505287
 30
0.0
  0
VERTEX
  8
0
 10
-20.41523897577095
 20
9.969494616472907
 30
0.0
  0
VERTEX
  8
0
 10
-20.351739010060935
 20
10.22349447931298
 30
0.0
  0
VERTEX
  8
0
 10
-20.288239044350917
 20
10.350494410733017
 30
0.0
  0
VERTEX
  8
0
 10
-20.03423918151084
 20
10.667994239283109
 30
0.0
  0
VERTEX
  8
0
 10
-19.907239250090804
 20
10.985494067833203
 30
0.0
  0
VERTEX
  8
0
 10
-19.653239387250732
 20
11.302993896383295
 30
0.0
  0
VERTEX
  8
0
 10
-19.653239387250732
 20
11.429993827803333
 30
0.0
  0
VERTEX
  8
0
 10
-19.399239524410657
 20
11.874493587773463
 30
0.0
  0
VERTEX
  8
0
 10
-19.081739695860563
 20
12.382493313453612
 30
0.0
  0
VERTEX
  8
0
 10
-18.38324007305036
 20
13.398492764813907
 30
0.0
  0
VERTEX
  8
0
 10
-18.00224027879025
 20
13.779492559074018
 30
0.0
  0
VERTEX
  8
0
 10
-17.875240347370212
 20
14.03349242191409
 30
0.0
  0
VERTEX
  8
0
 10
-17.4942405531101
 20
14.414492216174203
 30
0.0
  0
VERTEX
  8
0
 10
-17.240240690270028
 20
14.795492010434314
 30
0.0
  0
VERTEX
  8
0
 10
-16.541741067459824
 20
15.557491598954536
 30
0.0
  0
VERTEX
  8
0
 10
-15.589241581809546
 20
16.509991084604813
 30
0.0
  0
VERTEX
  8
0
 10
-14.95424192470936
 20
17.08149077599498
 30
0.0
  0
VERTEX
  8
0
 10
-14.700242061869286
 20
17.208490707415017
 30
0.0
  0
VERTEX
  8
0
 10
-14.192242336189139
 20
17.716490433095167
 30
0.0
  0
VERTEX
  8
0
 10
-13.874742507639047
 20
17.97049029593524
 30
0.0
  0
VERTEX
  8
0
 10
-13.68424261050899
 20
18.097490227355276
 30
0.0
  0
VERTEX
  8
0
 10
-13.493742713378936
 20
18.160990193065295
 30
0.0
  0
VERTEX
  8
0
 10
-13.23974285053886
 20
18.41499005590537
 30
0.0
  0
VERTEX
  8
0
 10
-13.049242953408804
 20
18.47849002161539
 30
0.0
  0
VERTEX
  8
0
 10
-12.79524309056873
 20
18.73248988445546
 30
0.0
  0
VERTEX
  8
0
 10
-12.541243227728657
 20
18.922989781585517
 30
0.0
  0
VERTEX
  8
0
 10
-12.03324350204851
 20
19.240489610135608
 30
0.0
  0
VERTEX
  8
0
 10
-11.715743673498416
 20
19.367489541555646
 30
0.0
  0
VERTEX
  8
0
 10
-11.461743810658342
 20
19.62148940439572
 30
0.0
  0
VERTEX
  8
0
 10
-11.144243982108248
 20
19.74848933581576
 30
0.0
  0
VERTEX
  8
0
 10
-10.826744153558156
 20
20.002489198655834
 30
0.0
  0
VERTEX
  8
0
 10
-9.937744633617898
 20
20.44698895862596
 30
0.0
  0
VERTEX
  8
0
 10
-8.413745456577452
 20
21.14548858143617
 30
0.0
  0
VERTEX
  8
0
 10
-7.715245833767249
 20
21.399488444276237
 30
0.0
  0
VERTEX
  8
0
 10
-7.524745936637194
 20
21.399488444276237
 30
0.0
  0
VERTEX
  8
0
 10
-7.2707460737971195
 20
21.589988341406293
 30
0.0
  0
VERTEX
  8
0
 10
-7.080246176667064
 20
21.653488307116312
 30
0.0
  0
VERTEX
  8
0
 10
-6.889746279537009
 20
21.653488307116312
 30
0.0
  0
VERTEX
  8
0
 10
-6.699246382406954
 20
21.71698827282633
 30
0.0
  0
VERTEX
  8
0
 10
-6.3817465538568605
 20
21.907488169956387
 30
0.0
  0
VERTEX
  8
0
 10
-5.873746828176713
 20
21.970988135666406
 30
0.0
  0
VERTEX
  8
0
 10
-5.429247068206583
 20
22.161488032796463
 30
0.0
  0
VERTEX
  8
0
 10
-5.175247205366508
 20
22.161488032796463
 30
0.0
  0
VERTEX
  8
0
 10
-4.921247342526435
 20
22.288487964216497
 30
0.0
  0
VERTEX
  8
0
 10
-4.6672474796863614
 20
22.288487964216497
 30
0.0
  0
VERTEX
  8
0
 10
-4.476747582556305
 20
22.415487895636534
 30
0.0
  0
VERTEX
  8
0
 10
-4.095747788296194
 20
22.478987861346553
 30
0.0
  0
VERTEX
  8
0
 10
-3.4607481311960093
 20
22.478987861346553
 30
0.0
  0
VERTEX
  8
0
 10
-2.8892484398058427
 20
22.66948775847661
 30
0.0
  0
VERTEX
  8
0
 10
-2.254248782705657
 20
22.73298772418663
 30
0.0
  0
VERTEX
  8
0
 10
-1.6192491256054722
 20
22.796487689896647
 30
0.0
  0
VERTEX
  8
0
 10
-0.7302496056652129
 20
22.859987655606666
 30
0.0
  0
VERTEX
  8
0
 10
-0.5397497085351575
 20
22.859987655606666
 30
0.0
  0
VERTEX
  8
0
 10
1.873248988445546
 20
22.796487689896647
 30
0.0
  0
VERTEX
  8
0
 10
2.317748748415676
 20
22.66948775847661
 30
0.0
  0
VERTEX
  8
0
 10
2.825748474095824
 20
22.66948775847661
 30
0.0
  0
VERTEX
  8
0
 10
3.0797483369358982
 20
22.542487827056572
 30
0.0
  0
VERTEX
  8
0
 10
3.5242480969060272
 20
22.542487827056572
 30
0.0
  0
VERTEX
  8
0
 10
3.8417479254561204
 20
22.478987861346553
 30
0.0
  0
VERTEX
  8
0
 10
4.2227477197162315
 20
22.415487895636534
 30
0.0
  0
VERTEX
  8
0
 10
4.730747445396379
 20
22.22498799850648
 30
0.0
  0
VERTEX
  8
0
 10
5.0482472739464725
 20
22.22498799850648
 30
0.0
  0
VERTEX
  8
0
 10
5.302247136786546
 20
22.161488032796463
 30
0.0
  0
VERTEX
  8
0
 10
5.619746965336638
 20
21.970988135666406
 30
0.0
  0
VERTEX
  8
0
 10
6.064246725306768
 20
21.84398820424637
 30
0.0
  0
VERTEX
  8
0
 10
6.318246588146842
 20
21.84398820424637
 30
0.0
  0
VERTEX
  8
0
 10
6.572246450986916
 20
21.78048823853635
 30
0.0
  0
VERTEX
  8
0
 10
7.080246176667064
 20
21.589988341406293
 30
0.0
  0
VERTEX
  8
0
 10
7.397746005217157
 20
21.399488444276237
 30
0.0
  0
VERTEX
  8
0
 10
7.6517458680572314
 20
21.399488444276237
 30
0.0
  0
VERTEX
  8
0
 10
7.905745730897306
 20
21.272488512856206
 30
0.0
  0
VERTEX
  8
0
 10
8.47724542228747
 20
21.01848865001613
 30
0.0
  0
VERTEX
  8
0
 10
8.98524514796762
 20
20.764488787176056
 30
0.0
  0
VERTEX
  8
0
 10
9.87424466790788
 20
20.25648906149591
 30
0.0
  0
VERTEX
  8
0
 10
10.064744565037936
 20
20.19298909578589
 30
0.0
  0
VERTEX
  8
0
 10
10.31874442787801
 20
20.19298909578589
 30
0.0
  0
VERTEX
  8
0
 10
10.445744359298047
 20
20.12948913007587
 30
0.0
  0
VERTEX
  8
0
 10
10.890244119268175
 20
19.68498937010574
 30
0.0
  0
VERTEX
  8
0
 10
11.144243982108248
 20
19.62148940439572
 30
0.0
  0
VERTEX
  8
0
 10
11.334743879238305
 20
19.430989507265664
 30
0.0
  0
VERTEX
  8
0
 10
11.652243707788397
 20
19.303989575845627
 30
0.0
  0
VERTEX
  8
0
 10
11.842743604918454
 20
19.113489678715574
 30
0.0
  0
VERTEX
  8
0
 10
12.41424329630862
 20
18.8594898158755
 30
0.0
  0
VERTEX
  8
0
 10
12.731743124858712
 20
18.541989987325408
 30
0.0
  0
VERTEX
  8
0
 10
12.922243021988768
 20
18.41499005590537
 30
0.0
  0
VERTEX
  8
0
 10
13.430242747668917
 20
18.160990193065295
 30
0.0
  0
VERTEX
  8
0
 10
13.938242473349066
 20
17.8434903645152
 30
0.0
  0
VERTEX
  8
0
 10
13.938242473349066
 20
17.716490433095167
 30
0.0
  0
VERTEX
  8
0
 10
14.319242267609177
 20
17.335490638835054
 30
0.0
  0
VERTEX
  8
0
 10
14.50974216473923
 20
17.27199067312504
 30
0.0
  0
VERTEX
  8
0
 10
14.95424192470936
 20
16.890990878864926
 30
0.0
  0
VERTEX
  8
0
 10
15.716241513229583
 20
16.192491256054723
 30
0.0
  0
VERTEX
  8
0
 10
16.16074127319971
 20
15.684491530374574
 30
0.0
  0
VERTEX
  8
0
 10
16.414741136039787
 20
15.430491667534499
 30
0.0
  0
VERTEX
  8
0
 10
16.605241033169843
 20
15.366991701824482
 30
0.0
  0
VERTEX
  8
0
 10
16.859240896009915
 20
15.112991838984406
 30
0.0
  0
VERTEX
  8
0
 10
16.859240896009915
 20
14.985991907564369
 30
0.0
  0
VERTEX
  8
0
 10
16.922740861719934
 20
14.858991976144333
 30
0.0
  0
VERTEX
  8
0
 10
16.986240827429953
 20
14.795492010434314
 30
0.0
  0
VERTEX
  8
0
 10
17.04974079313997
 20
14.795492010434314
 30
0.0
  0
VERTEX
  8
0
 10
17.17674072456001
 20
14.668492079014277
 30
0.0
  0
VERTEX
  8
0
 10
17.17674072456001
 20
14.604992113304258
 30
0.0
  0
VERTEX
  8
0
 10
17.367240621690062
 20
14.47799218188422
 30
0.0
  0
VERTEX
  8
0
 10
17.367240621690062
 20
14.350992250464184
 30
0.0
  0
VERTEX
  8
0
 10
17.811740381660194
 20
14.096992387624109
 30
0.0
  0
VERTEX
  8
0
 10
17.811740381660194
 20
14.668492079014277
 30
0.0
  0
VERTEX
  8
0
 10
18.00224027879025
 20
14.731992044724295
 30
0.0
  0
VERTEX
  8
0
 10
18.129240210210288
 20
14.668492079014277
 30
0.0
  0
VERTEX
  8
0
 10
18.00224027879025
 20
13.525492696233943
 30
0.0
  0
VERTEX
  8
0
 10
18.192740175920306
 20
13.27149283339387
 30
0.0
  0
VERTEX
  8
0
 10
18.38324007305036
 20
13.080992936263813
 30
0.0
  0
VERTEX
  8
0
 10
18.446740038760378
 20
12.82699307342374
 30
0.0
  0
VERTEX
  8
0
 10
18.827739833020487
 20
12.382493313453612
 30
0.0
  0
VERTEX
  8
0
 10
18.89123979873051
 20
12.382493313453612
 30
0.0
  0
VERTEX
  8
0
 10
18.954739764440525
 20
12.191993416323555
 30
0.0
  0
VERTEX
  8
0
 10
19.081739695860563
 20
12.0014935191935
 30
0.0
  0
VERTEX
  8
0
 10
19.335739558700638
 20
11.747493656353425
 30
0.0
  0
VERTEX
  8
0
 10
19.399239524410657
 20
11.493493793513352
 30
0.0
  0
VERTEX
  8
0
 10
19.589739421540713
 20
11.366493862093314
 30
0.0
  0
VERTEX
  8
0
 10
19.653239387250732
 20
11.175993964963258
 30
0.0
  0
VERTEX
  8
0
 10
19.653239387250732
 20
10.985494067833203
 30
0.0
  0
VERTEX
  8
0
 10
19.843739284380785
 20
10.731494204993128
 30
0.0
  0
VERTEX
  8
0
 10
19.907239250090804
 20
10.413994376443036
 30
0.0
  0
VERTEX
  8
0
 10
20.16123911293088
 20
10.22349447931298
 30
0.0
  0
VERTEX
  8
0
 10
20.224739078640898
 20
9.778994719342851
 30
0.0
  0
VERTEX
  8
0
 10
20.47873894148097
 20
9.461494890792759
 30
0.0
  0
VERTEX
  8
0
 10
20.54223890719099
 20
9.080495096532648
 30
0.0
  0
VERTEX
  8
0
 10
20.732738804321045
 20
8.826495233692574
 30
0.0
  0
VERTEX
  8
0
 10
20.732738804321045
 20
8.5724953708525
 30
0.0
  0
VERTEX
  8
0
 10
20.9232387014511
 20
8.381995473722444
 30
0.0
  0
VERTEX
  8
0
 10
20.9232387014511
 20
8.12799561088237
 30
0.0
  0
VERTEX
  8
0
 10
21.05023863287114
 20
7.873995748042296
 30
0.0
  0
VERTEX
  8
0
 10
21.113738598581158
 20
7.873995748042296
 30
0.0
  0
VERTEX
  8
0
 10
21.240738530001195
 20
7.746995816622259
 30
0.0
  0
VERTEX
  8
0
 10
21.240738530001195
 20
7.4294959880721665
 30
0.0
  0
VERTEX
  8
0
 10
21.431238427131248
 20
7.302496056652129
 30
0.0
  0
VERTEX
  8
0
 10
21.431238427131248
 20
6.730996365261963
 30
0.0
  0
VERTEX
  8
0
 10
21.494738392841267
 20
6.6039964338419255
 30
0.0
  0
VERTEX
  8
0
 10
21.621738324261305
 20
6.476996502421889
 30
0.0
  0
VERTEX
  8
0
 10
21.81223822139136
 20
6.41349653671187
 30
0.0
  0
VERTEX
  8
0
 10
21.748738255681342
 20
6.03249674245176
 30
0.0
  0
VERTEX
  8
0
 10
21.81223822139136
 20
5.841996845321703
 30
0.0
  0
VERTEX
  8
0
 10
21.621738324261305
 20
5.778496879611685
 30
0.0
  0
VERTEX
  8
0
 10
21.558238358551286
 20
5.587996982481629
 30
0.0
  0
VERTEX
  8
0
 10
22.002738118521417
 20
5.206997188221518
 30
0.0
  0
VERTEX
  8
0
 10
22.129738049941455
 20
5.016497291091463
 30
0.0
  0
VERTEX
  8
0
 10
22.129738049941455
 20
4.825997393961407
 30
0.0
  0
VERTEX
  8
0
 10
22.066238084231436
 20
4.762497428251389
 30
0.0
  0
VERTEX
  8
0
 10
22.002738118521417
 20
4.69899746254137
 30
0.0
  0
VERTEX
  8
0
 10
22.002738118521417
 20
4.508497565411314
 30
0.0
  0
VERTEX
  8
0
 10
22.066238084231436
 20
4.31799766828126
 30
0.0
  0
VERTEX
  8
0
 10
22.193238015651474
 20
4.190997736861222
 30
0.0
  0
VERTEX
  8
0
 10
22.193238015651474
 20
4.000497839731167
 30
0.0
  0
VERTEX
  8
0
 10
22.129738049941455
 20
3.809997942601111
 30
0.0
  0
VERTEX
  8
0
 10
22.193238015651474
 20
3.3654981826309815
 30
0.0
  0
VERTEX
  8
0
 10
22.320237947071504
 20
3.3019982169209627
 30
0.0
  0
VERTEX
  8
0
 10
22.383737912781527
 20
3.047998354080889
 30
0.0
  0
VERTEX
  8
0
 10
22.320237947071504
 20
2.2859987655606666
 30
0.0
  0
VERTEX
  8
0
 10
22.320237947071504
 20
1.9049989713005555
 30
0.0
  0
VERTEX
  8
0
 10
22.447237878491542
 20
1.7779990398805183
 30
0.0
  0
VERTEX
  8
0
 10
22.57423780991158
 20
1.7779990398805183
 30
0.0
  0
VERTEX
  8
0
 10
22.701237741331617
 20
1.7144990741705
 30
0.0
  0
VERTEX
  8
0
 10
22.701237741331617
 20
0.3174998285500926
 30
0.0
  0
VERTEX
  8
0
 10
22.637737775621602
 20
0.12699993142003704
 30
0.0
  0
VERTEX
  8
0
 10
22.57423780991158
 20
0.06349996571001852
 30
0.0
  0
VERTEX
  8
0
 10
22.510737844201564
 20
0.0
 30
0.0
  0
VERTEX
  8
0
 10
22.447237878491542
 20
-0.12699993142003704
 30
0.0
  0
VERTEX
  8
0
 10
22.57423780991158
 20
-0.2539998628400741
 30
0.0
  0
VERTEX
  8
0
 10
22.637737775621602
 20
-0.6349996571001852
 30
0.0
  0
VERTEX
  8
0
 10
22.637737775621602
 20
-0.7619995885202222
 30
0.0
  0
VERTEX
  8
0
 10
22.57423780991158
 20
-1.1429993827803333
 30
0.0
  0
VERTEX
  8
0
 10
22.447237878491542
 20
-1.2699993142003705
 30
0.0
  0
VERTEX
  8
0
 10
22.447237878491542
 20
-2.15899883414063
 30
0.0
  0
VERTEX
  8
0
 10
22.383737912781527
 20
-2.6669985598207773
 30
0.0
  0
VERTEX
  8
0
 10
22.256737981361493
 20
-2.8574984569508333
 30
0.0
  0
VERTEX
  8
0
 10
22.256737981361493
 20
-3.047998354080889
 30
0.0
  0
VERTEX
  8
0
 10
22.320237947071504
 20
-3.4924981140510187
 30
0.0
  0
VERTEX
  8
0
 10
22.193238015651474
 20
-3.682998011181074
 30
0.0
  0
VERTEX
  8
0
 10
22.129738049941455
 20
-4.31799766828126
 30
0.0
  0
VERTEX
  8
0
 10
21.9392381528114
 20
-4.825997393961407
 30
0.0
  0
VERTEX
  8
0
 10
21.9392381528114
 20
-5.206997188221518
 30
0.0
  0
VERTEX
  8
0
 10
21.87573818710138
 20
-5.460997051061592
 30
0.0
  0
VERTEX
  8
0
 10
21.81223822139136
 20
-5.587996982481629
 30
0.0
  0
VERTEX
  8
0
 10
21.621738324261305
 20
-5.905496811031722
 30
0.0
  0
VERTEX
  8
0
 10
21.685238289971323
 20
-6.1594966738717964
 30
0.0
  0
VERTEX
  8
0
 10
21.558238358551286
 20
-6.41349653671187
 30
0.0
  0
VERTEX
  8
0
 10
21.558238358551286
 20
-6.730996365261963
 30
0.0
  0
VERTEX
  8
0
 10
21.431238427131248
 20
-6.921496262392019
 30
0.0
  0
VERTEX
  8
0
 10
21.431238427131248
 20
-7.111996159522073
 30
0.0
  0
VERTEX
  8
0
 10
21.36773846142123
 20
-7.23899609094211
 30
0.0
  0
VERTEX
  8
0
 10
21.240738530001195
 20
-7.302496056652129
 30
0.0
  0
VERTEX
  8
0
 10
21.177238564291176
 20
-7.810495782332278
 30
0.0
  0
VERTEX
  8
0
 10
21.113738598581158
 20
-7.937495713752314
 30
0.0
  0
VERTEX
  8
0
 10
20.9232387014511
 20
-8.191495576592388
 30
0.0
  0
VERTEX
  8
0
 10
20.859738735741082
 20
-8.318495508012425
 30
0.0
  0
VERTEX
  8
0
 10
20.859738735741082
 20
-8.445495439432463
 30
0.0
  0
VERTEX
  8
0
 10
20.796238770031064
 20
-8.5724953708525
 30
0.0
  0
VERTEX
  8
0
 10
20.669238838611026
 20
-8.699495302272537
 30
0.0
  0
VERTEX
  8
0
 10
20.669238838611026
 20
-8.826495233692574
 30
0.0
  0
VERTEX
  8
0
 10
20.16123911293088
 20
-9.651994787922813
 30
0.0
  0
VERTEX
  8
0
 10
20.16123911293088
 20
-9.778994719342851
 30
0.0
  0
VERTEX
  8
0
 10
20.09773914722086
 20
-9.905994650762889
 30
0.0
  0
VERTEX
  8
0
 10
19.907239250090804
 20
-10.096494547892945
 30
0.0
  0
VERTEX
  8
0
 10
19.843739284380785
 20
-10.22349447931298
 30
0.0
  0
VERTEX
  8
0
 10
19.843739284380785
 20
-10.350494410733017
 30
0.0
  0
VERTEX
  8
0
 10
19.589739421540713
 20
-10.794994170703147
 30
0.0
  0
VERTEX
  8
0
 10
19.399239524410657
 20
-10.985494067833203
 30
0.0
  0
VERTEX
  8
0
 10
19.399239524410657
 20
-11.11249399925324
 30
0.0
  0
VERTEX
  8
0
 10
19.27223959299062
 20
-11.239493930673277
 30
0.0
  0
VERTEX
  8
0
 10
19.27223959299062
 20
-11.429993827803333
 30
0.0
  0
VERTEX
  8
0
 10
19.081739695860563
 20
-11.620493724933388
 30
0.0
  0
VERTEX
  8
0
 10
19.081739695860563
 20
-11.810993622063444
 30
0.0
  0
VERTEX
  8
0
 10
18.700739901600453
 20
-12.191993416323555
 30
0.0
  0
VERTEX
  8
0
 10
18.700739901600453
 20
-12.318993347743593
 30
0.0
  0
VERTEX
  8
0
 10
18.38324007305036
 20
-12.636493176293683
 30
0.0
  0
VERTEX
  8
0
 10
18.31974010734034
 20
-12.82699307342374
 30
0.0
  0
VERTEX
  8
0
 10
18.129240210210288
 20
-13.080992936263813
 30
0.0
  0
VERTEX
  8
0
 10
17.811740381660194
 20
-13.398492764813907
 30
0.0
  0
VERTEX
  8
0
 10
17.684740450240156
 20
-13.715992593364
 30
0.0
  0
VERTEX
  8
0
 10
17.367240621690062
 20
-14.03349242191409
 30
0.0
  0
VERTEX
  8
0
 10
17.240240690270028
 20
-14.287492284754165
 30
0.0
  0
VERTEX
  8
0
 10
17.11324075884999
 20
-14.414492216174203
 30
0.0
  0
VERTEX
  8
0
 10
17.04974079313997
 20
-14.414492216174203
 30
0.0
  0
VERTEX
  8
0
 10
16.922740861719934
 20
-14.541492147594239
 30
0.0
  0
VERTEX
  8
0
 10
16.922740861719934
 20
-14.668492079014277
 30
0.0
  0
VERTEX
  8
0
 10
16.859240896009915
 20
-14.795492010434314
 30
0.0
  0
VERTEX
  8
0
 10
16.668740998879862
 20
-14.858991976144333
 30
0.0
  0
VERTEX
  8
0
 10
16.605241033169843
 20
-15.176491804694425
 30
0.0
  0
VERTEX
  8
0
 10
15.906741410359636
 20
-15.938491393214647
 30
0.0
  0
VERTEX
  8
0
 10
15.335241718969472
 20
-16.446491118894794
 30
0.0
  0
VERTEX
  8
0
 10
15.271741753259453
 20
-16.509991084604813
 30
0.0
  0
VERTEX
  8
0
 10
14.890741958999342
 20
-17.017990810284964
 30
0.0
  0
VERTEX
  8
0
 10
14.50974216473923
 20
-17.398990604545073
 30
0.0
  0
VERTEX
  8
0
 10
14.382742233319195
 20
-17.462490570255092
 30
0.0
  0
VERTEX
  8
0
 10
14.255742301899158
 20
-17.398990604545073
 30
0.0
  0
VERTEX
  8
0
 10
14.065242404769101
 20
-17.335490638835054
 30
0.0
  0
VERTEX
  8
0
 10
13.938242473349066
 20
-17.462490570255092
 30
0.0
  0
VERTEX
  8
0
 10
13.874742507639047
 20
-17.65299046738515
 30
0.0
  0
VERTEX
  8
0
 10
13.747742576219009
 20
-17.716490433095167
 30
0.0
  0
VERTEX
  8
0
 10
13.493742713378936
 20
-17.90699033022522
 30
0.0
  0
VERTEX
  8
0
 10
13.366742781958898
 20
-17.97049029593524
 30
0.0
  0
VERTEX
  8
0
 10
13.049242953408804
 20
-18.033990261645258
 30
0.0
  0
VERTEX
  8
0
 10
12.922243021988768
 20
-18.160990193065295
 30
0.0
  0
VERTEX
  8
0
 10
12.85874305627875
 20
-18.224490158775314
 30
0.0
  0
VERTEX
  8
0
 10
12.541243227728657
 20
-18.605489953035427
 30
0.0
  0
VERTEX
  8
0
 10
12.223743399178563
 20
-18.8594898158755
 30
0.0
  0
VERTEX
  8
0
 10
12.096743467758525
 20
-18.922989781585517
 30
0.0
  0
VERTEX
  8
0
 10
11.969743536338491
 20
-18.986489747295536
 30
0.0
  0
VERTEX
  8
0
 10
11.652243707788397
 20
-18.986489747295536
 30
0.0
  0
VERTEX
  8
0
 10
11.271243913528286
 20
-19.367489541555646
 30
0.0
  0
VERTEX
  8
0
 10
11.080744016398231
 20
-19.494489472975683
 30
0.0
  0
VERTEX
  8
0
 10
10.953744084978194
 20
-19.557989438685702
 30
0.0
  0
VERTEX
  8
0
 10
10.699744222138118
 20
-19.557989438685702
 30
0.0
  0
VERTEX
  8
0
 10
10.509244325008066
 20
-19.62148940439572
 30
0.0
  0
VERTEX
  8
0
 10
10.382244393588028
 20
-19.74848933581576
 30
0.0
  0
VERTEX
  8
0
 10
10.31874442787801
 20
-19.938989232945815
 30
0.0
  0
VERTEX
  8
0
 10
10.191744496457972
 20
-20.065989164365853
 30
0.0
  0
VERTEX
  8
0
 10
10.001244599327917
 20
-20.19298909578589
 30
0.0
  0
VERTEX
  8
0
 10
9.36624494222773
 20
-20.383488992915943
 30
0.0
  0
VERTEX
  8
0
 10
9.302744976517713
 20
-20.383488992915943
 30
0.0
  0
VERTEX
  8
0
 10
9.239245010807695
 20
-20.44698895862596
 30
0.0
  0
VERTEX
  8
0
 10
8.98524514796762
 20
-20.764488787176056
 30
0.0
  0
VERTEX
  8
0
 10
8.731245285127546
 20
-20.891488718596094
 30
0.0
  0
VERTEX
  8
0
 10
8.350245490867435
 20
-21.081988615726146
 30
0.0
  0
VERTEX
  8
0
 10
8.032745662317343
 20
-21.081988615726146
 30
0.0
  0
VERTEX
  8
0
 10
7.842245765187287
 20
-21.208988547146184
 30
0.0
  0
VERTEX
  8
0
 10
7.6517458680572314
 20
-21.208988547146184
 30
0.0
  0
VERTEX
  8
0
 10
7.397746005217157
 20
-21.399488444276237
 30
0.0
  0
VERTEX
  8
0
 10
7.2707460737971195
 20
-21.462988409986256
 30
0.0
  0
VERTEX
  8
0
 10
6.889746279537009
 20
-21.399488444276237
 30
0.0
  0
VERTEX
  8
0
 10
6.82624631382699
 20
-21.526488375696275
 30
0.0
  0
VERTEX
  8
0
 10
6.635746416696935
 20
-21.653488307116312
 30
0.0
  0
VERTEX
  8
0
 10
6.254746622436825
 20
-21.84398820424637
 30
0.0
  0
VERTEX
  8
0
 10
6.064246725306768
 20
-21.84398820424637
 30
0.0
  0
VERTEX
  8
0
 10
5.873746828176713
 20
-21.970988135666406
 30
0.0
  0
VERTEX
  8
0
 10
5.683246931046657
 20
-21.970988135666406
 30
0.0
  0
VERTEX
  8
0
 10
5.492747033916602
 20
-22.097988067086444
 30
0.0
  0
VERTEX
  8
0
 10
5.0482472739464725
 20
-22.097988067086444
 30
0.0
  0
VERTEX
  8
0
 10
4.794247411106398
 20
-22.288487964216497
 30
0.0
  0
VERTEX
  8
0
 10
4.6672474796863614
 20
-22.351987929926516
 30
0.0
  0
VERTEX
  8
0
 10
4.476747582556305
 20
-22.415487895636534
 30
0.0
  0
VERTEX
  8
0
 10
4.2227477197162315
 20
-22.478987861346553
 30
0.0
  0
VERTEX
  8
0
 10
3.333748199775972
 20
-22.66948775847661
 30
0.0
  0
VERTEX
  8
0
 10
2.952748405515861
 20
-22.66948775847661
 30
0.0
  0
VERTEX
  8
0
 10
2.6352485769657683
 20
-22.796487689896647
 30
0.0
  0
VERTEX
  8
0
 10
1.873248988445546
 20
-22.859987655606666
 30
0.0
  0
VERTEX
  8
0
 10
1.111249399925324
 20
-22.923487621316685
 30
0.0
  0
SEQEND
  0
POLYLINE
  8
0
 66
1
 10
0.0
 20
0.0
 30
0.0
 70
1
  0
VERTEX
  8
0
 10
-2.190748816995639
 20
-16.25599122176474
 30
0.0
  0
VERTEX
  8
0
 10
-1.7462490570255094
 20
-16.25599122176474
 30
0.0
  0
VERTEX
  8
0
 10
-0.85724953708525
 20
-16.128991290344704
 30
0.0
  0
VERTEX
  8
0
 10
-0.3492498114051018
 20
-16.192491256054723
 30
0.0
  0
VERTEX
  8
0
 10
-0.1587499142750463
 20
-16.192491256054723
 30
0.0
  0
VERTEX
  8
0
 10
0.2857498456950833
 20
-16.128991290344704
 30
0.0
  0
VERTEX
  8
0
 10
0.7302496056652129
 20
-16.001991358924666
 30
0.0
  0
VERTEX
  8
0
 10
1.238249331345361
 20
-16.001991358924666
 30
0.0
  0
VERTEX
  8
0
 10
1.873248988445546
 20
-15.938491393214647
 30
0.0
  0
VERTEX
  8
0
 10
2.0637488855756017
 20
-15.811491461794612
 30
0.0
  0
VERTEX
  8
0
 10
2.254248782705657
 20
-15.811491461794612
 30
0.0
  0
VERTEX
  8
0
 10
2.4447486798357128
 20
-15.684491530374574
 30
0.0
  0
VERTEX
  8
0
 10
2.7622485083858055
 20
-15.684491530374574
 30
0.0
  0
VERTEX
  8
0
 10
2.952748405515861
 20
-15.557491598954536
 30
0.0
  0
VERTEX
  8
0
 10
3.143248302645916
 20
-15.557491598954536
 30
0.0
  0
VERTEX
  8
0
 10
3.4607481311960093
 20
-15.366991701824482
 30
0.0
  0
VERTEX
  8
0
 10
3.6512480283260644
 20
-15.366991701824482
 30
0.0
  0
VERTEX
  8
0
 10
3.8417479254561204
 20
-15.239991770404444
 30
0.0
  0
VERTEX
  8
0
 10
4.159247754006213
 20
-15.239991770404444
 30
0.0
  0
VERTEX
  8
0
 10
4.603747513976343
 20
-14.985991907564369
 30
0.0
  0
VERTEX
  8
0
 10
5.302247136786546
 20
-14.985991907564369
 30
0.0
  0
VERTEX
  8
0
 10
5.683246931046657
 20
-14.92249194185435
 30
0.0
  0
VERTEX
  8
0
 10
6.00074675959675
 20
-14.731992044724295
 30
0.0
  0
VERTEX
  8
0
 10
6.318246588146842
 20
-14.731992044724295
 30
0.0
  0
VERTEX
  8
0
 10
6.445246519566879
 20
-14.668492079014277
 30
0.0
  0
VERTEX
  8
0
 10
6.635746416696935
 20
-14.47799218188422
 30
0.0
  0
VERTEX
  8
0
 10
6.82624631382699
 20
-14.414492216174203
 30
0.0
  0
VERTEX
  8
0
 10
7.461245970927175
 20
-13.779492559074018
 30
0.0
  0
VERTEX
  8
0
 10
7.588245902347213
 20
-13.715992593364
 30
0.0
  0
VERTEX
  8
0
 10
7.715245833767249
 20
-13.65249262765398
 30
0.0
  0
VERTEX
  8
0
 10
7.905745730897306
 20
-13.65249262765398
 30
0.0
  0
VERTEX
  8
0
 10
8.223245559447397
 20
-13.525492696233943
 30
0.0
  0
VERTEX
  8
0
 10
8.413745456577452
 20
-13.334992799103889
 30
0.0
  0
VERTEX
  8
0
 10
8.54074538799749
 20
-13.27149283339387
 30
0.0
  0
VERTEX
  8
0
 10
8.667745319417527
 20
-13.27149283339387
 30
0.0
  0
VERTEX
  8
0
 10
8.98524514796762
 20
-13.080992936263813
 30
0.0
  0
VERTEX
  8
0
 10
9.620244805067804
 20
-12.50949324487365
 30
0.0
  0
VERTEX
  8
0
 10
9.81074470219786
 20
-12.44599327916363
 30
0.0
  0
VERTEX
  8
0
 10
10.128244530747954
 20
-12.191993416323555
 30
0.0
  0
VERTEX
  8
0
 10
10.763244187848137
 20
-11.493493793513352
 30
0.0
  0
VERTEX
  8
0
 10
11.017244050688213
 20
-11.239493930673277
 30
0.0
  0
VERTEX
  8
0
 10
11.271243913528286
 20
-11.11249399925324
 30
0.0
  0
VERTEX
  8
0
 10
12.223743399178563
 20
-10.159994513602964
 30
0.0
  0
VERTEX
  8
0
 10
12.3507433305986
 20
-9.969494616472907
 30
0.0
  0
VERTEX
  8
0
 10
12.3507433305986
 20
-9.84249468505287
 30
0.0
  0
VERTEX
  8
0
 10
12.41424329630862
 20
-9.715494753632832
 30
0.0
  0
VERTEX
  8
0
 10
12.604743193438674
 20
-9.524994856502778
 30
0.0
  0
VERTEX
  8
0
 10
12.668243159148693
 20
-9.334494959372723
 30
0.0
  0
VERTEX
  8
0
 10
13.112742919118823
 20
-8.889995199402591
 30
0.0
  0
VERTEX
  8
0
 10
13.23974285053886
 20
-8.63599533656252
 30
0.0
  0
VERTEX
  8
0
 10
13.811242541929028
 20
-8.064495645172352
 30
0.0
  0
VERTEX
  8
0
 10
13.874742507639047
 20
-7.873995748042296
 30
0.0
  0
VERTEX
  8
0
 10
13.938242473349066
 20
-7.683495850912241
 30
0.0
  0
VERTEX
  8
0
 10
13.938242473349066
 20
-7.365996022362148
 30
0.0
  0
VERTEX
  8
0
 10
14.192242336189139
 20
-7.111996159522073
 30
0.0
  0
VERTEX
  8
0
 10
14.192242336189139
 20
-6.9849962281020375
 30
0.0
  0
VERTEX
  8
0
 10
14.573242130449248
 20
-6.6039964338419255
 30
0.0
  0
VERTEX
  8
0
 10
14.890741958999342
 20
-6.095996708161778
 30
0.0
  0
VERTEX
  8
0
 10
14.95424192470936
 20
-5.968996776741741
 30
0.0
  0
VERTEX
  8
0
 10
15.017741890419378
 20
-5.841996845321703
 30
0.0
  0
VERTEX
  8
0
 10
15.017741890419378
 20
-5.016497291091463
 30
0.0
  0
VERTEX
  8
0
 10
15.144741821839416
 20
-4.69899746254137
 30
0.0
  0
VERTEX
  8
0
 10
15.271741753259453
 20
-4.571997531121333
 30
0.0
  0
VERTEX
  8
0
 10
15.335241718969472
 20
-4.444997599701296
 30
0.0
  0
VERTEX
  8
0
 10
15.335241718969472
 20
-4.254497702571241
 30
0.0
  0
VERTEX
  8
0
 10
15.39874168467949
 20
-4.063997805441185
 30
0.0
  0
VERTEX
  8
0
 10
15.525741616099527
 20
-3.936997874021148
 30
0.0
  0
VERTEX
  8
0
 10
15.589241581809546
 20
-3.4924981140510187
 30
0.0
  0
VERTEX
  8
0
 10
15.525741616099527
 20
-2.9209984226608516
 30
0.0
  0
VERTEX
  8
0
 10
15.525741616099527
 20
-2.539998628400741
 30
0.0
  0
VERTEX
  8
0
 10
15.716241513229583
 20
-2.2859987655606666
 30
0.0
  0
VERTEX
  8
0
 10
15.716241513229583
 20
-2.15899883414063
 30
0.0
  0
VERTEX
  8
0
 10
15.906741410359636
 20
-1.9049989713005555
 30
0.0
  0
VERTEX
  8
0
 10
15.906741410359636
 20
-1.2064993484903517
 30
0.0
  0
VERTEX
  8
0
 10
16.033741341779674
 20
-1.0159994513602963
 30
0.0
  0
VERTEX
  8
0
 10
15.970241376069655
 20
-0.5079997256801482
 30
0.0
  0
VERTEX
  8
0
 10
15.970241376069655
 20
-0.19049989713005555
 30
0.0
  0
VERTEX
  8
0
 10
16.097241307489693
 20
0.12699993142003704
 30
0.0
  0
VERTEX
  8
0
 10
16.097241307489693
 20
1.2064993484903517
 30
0.0
  0
VERTEX
  8
0
 10
16.033741341779674
 20
1.4604992113304258
 30
0.0
  0
VERTEX
  8
0
 10
15.906741410359636
 20
1.6509991084604814
 30
0.0
  0
VERTEX
  8
0
 10
15.906741410359636
 20
2.2859987655606666
 30
0.0
  0
VERTEX
  8
0
 10
15.779741478939602
 20
2.730498525530796
 30
0.0
  0
VERTEX
  8
0
 10
15.525741616099527
 20
3.1749982855009256
 30
0.0
  0
VERTEX
  8
0
 10
15.525741616099527
 20
3.619498045471055
 30
0.0
  0
VERTEX
  8
0
 10
15.589241581809546
 20
3.682998011181074
 30
0.0
  0
VERTEX
  8
0
 10
15.589241581809546
 20
4.127497771151203
 30
0.0
  0
VERTEX
  8
0
 10
15.525741616099527
 20
4.444997599701296
 30
0.0
  0
VERTEX
  8
0
 10
15.39874168467949
 20
4.571997531121333
 30
0.0
  0
VERTEX
  8
0
 10
15.39874168467949
 20
4.69899746254137
 30
0.0
  0
VERTEX
  8
0
 10
15.271741753259453
 20
4.825997393961407
 30
0.0
  0
VERTEX
  8
0
 10
15.271741753259453
 20
5.016497291091463
 30
0.0
  0
VERTEX
  8
0
 10
15.144741821839416
 20
5.206997188221518
 30
0.0
  0
VERTEX
  8
0
 10
15.144741821839416
 20
5.397497085351573
 30
0.0
  0
VERTEX
  8
0
 10
15.081241856129397
 20
5.524497016771611
 30
0.0
  0
VERTEX
  8
0
 10
15.017741890419378
 20
5.651496948191648
 30
0.0
  0
VERTEX
  8
0
 10
14.890741958999342
 20
5.841996845321703
 30
0.0
  0
VERTEX
  8
0
 10
14.573242130449248
 20
6.1594966738717964
 30
0.0
  0
VERTEX
  8
0
 10
14.50974216473923
 20
6.349996571001851
 30
0.0
  0
VERTEX
  8
0
 10
14.50974216473923
 20
6.667496399551944
 30
0.0
  0
VERTEX
  8
0
 10
14.44624219902921
 20
6.921496262392019
 30
0.0
  0
VERTEX
  8
0
 10
14.255742301899158
 20
7.23899609094211
 30
0.0
  0
VERTEX
  8
0
 10
14.255742301899158
 20
7.4294959880721665
 30
0.0
  0
VERTEX
  8
0
 10
14.12874237047912
 20
7.746995816622259
 30
0.0
  0
VERTEX
  8
0
 10
13.874742507639047
 20
8.191495576592388
 30
0.0
  0
VERTEX
  8
0
 10
13.620742644798971
 20
8.445495439432463
 30
0.0
  0
VERTEX
  8
0
 10
13.493742713378936
 20
8.63599533656252
 30
0.0
  0
VERTEX
  8
0
 10
13.430242747668917
 20
8.762995267982555
 30
0.0
  0
VERTEX
  8
0
 10
13.366742781958898
 20
8.889995199402591
 30
0.0
  0
VERTEX
  8
0
 10
13.366742781958898
 20
9.143995062242666
 30
0.0
  0
VERTEX
  8
0
 10
12.985742987698787
 20
9.524994856502778
 30
0.0
  0
VERTEX
  8
0
 10
12.731743124858712
 20
9.651994787922813
 30
0.0
  0
VERTEX
  8
0
 10
12.604743193438674
 20
9.778994719342851
 30
0.0
  0
VERTEX
  8
0
 10
12.477743262018638
 20
9.969494616472907
 30
0.0
  0
VERTEX
  8
0
 10
12.477743262018638
 20
10.096494547892945
 30
0.0
  0
VERTEX
  8
0
 10
12.3507433305986
 20
10.159994513602964
 30
0.0
  0
VERTEX
  8
0
 10
12.3507433305986
 20
10.350494410733017
 30
0.0
  0
VERTEX
  8
0
 10
12.223743399178563
 20
10.540994307863073
 30
0.0
  0
VERTEX
  8
0
 10
12.160243433468544
 20
10.731494204993128
 30
0.0
  0
VERTEX
  8
0
 10
11.715743673498416
 20
11.175993964963258
 30
0.0
  0
VERTEX
  8
0
 10
11.398243844948324
 20
11.239493930673277
 30
0.0
  0
VERTEX
  8
0
 10
11.271243913528286
 20
11.302993896383295
 30
0.0
  0
VERTEX
  8
0
 10
11.080744016398231
 20
11.429993827803333
 30
0.0
  0
VERTEX
  8
0
 10
10.31874442787801
 20
12.255493382033574
 30
0.0
  0
VERTEX
  8
0
 10
9.81074470219786
 20
12.763493107713721
 30
0.0
  0
VERTEX
  8
0
 10
9.620244805067804
 20
12.82699307342374
 30
0.0
  0
VERTEX
  8
0
 10
9.42974490793775
 20
12.953993004843777
 30
0.0
  0
VERTEX
  8
0
 10
9.175745045097676
 20
13.207992867683851
 30
0.0
  0
VERTEX
  8
0
 10
9.175745045097676
 20
13.334992799103889
 30
0.0
  0
VERTEX
  8
0
 10
8.667745319417527
 20
13.842992524784037
 30
0.0
  0
VERTEX
  8
0
 10
8.47724542228747
 20
13.969992456204075
 30
0.0
  0
VERTEX
  8
0
 10
8.350245490867435
 20
14.03349242191409
 30
0.0
  0
VERTEX
  8
0
 10
7.905745730897306
 20
14.096992387624109
 30
0.0
  0
VERTEX
  8
0
 10
7.778745799477268
 20
14.160492353334128
 30
0.0
  0
VERTEX
  8
0
 10
7.6517458680572314
 20
14.223992319044147
 30
0.0
  0
VERTEX
  8
0
 10
7.397746005217157
 20
14.47799218188422
 30
0.0
  0
VERTEX
  8
0
 10
7.397746005217157
 20
14.541492147594239
 30
0.0
  0
VERTEX
  8
0
 10
7.2072461080871015
 20
14.731992044724295
 30
0.0
  0
VERTEX
  8
0
 10
7.016746210957045
 20
14.858991976144333
 30
0.0
  0
VERTEX
  8
0
 10
6.762746348116972
 20
14.858991976144333
 30
0.0
  0
VERTEX
  8
0
 10
6.254746622436825
 20
15.112991838984406
 30
0.0
  0
VERTEX
  8
0
 10
6.064246725306768
 20
15.303491736114463
 30
0.0
  0
VERTEX
  8
0
 10
5.9372467938867315
 20
15.366991701824482
 30
0.0
  0
VERTEX
  8
0
 10
5.746746896756676
 20
15.430491667534499
 30
0.0
  0
VERTEX
  8
0
 10
5.55624699962662
 20
15.493991633244518
 30
0.0
  0
VERTEX
  8
0
 10
5.11174723965649
 20
15.493991633244518
 30
0.0
  0
VERTEX
  8
0
 10
4.857747376816416
 20
15.557491598954536
 30
0.0
  0
VERTEX
  8
0
 10
4.730747445396379
 20
15.620991564664555
 30
0.0
  0
VERTEX
  8
0
 10
4.349747651136268
 20
15.874991427504629
 30
0.0
  0
VERTEX
  8
0
 10
4.159247754006213
 20
16.001991358924666
 30
0.0
  0
VERTEX
  8
0
 10
3.01624837122588
 20
16.001991358924666
 30
0.0
  0
VERTEX
  8
0
 10
2.825748474095824
 20
16.128991290344704
 30
0.0
  0
VERTEX
  8
0
 10
2.5717486112557495
 20
16.128991290344704
 30
0.0
  0
VERTEX
  8
0
 10
2.317748748415676
 20
16.065491324634685
 30
0.0
  0
VERTEX
  8
0
 10
2.0637488855756017
 20
16.001991358924666
 30
0.0
  0
VERTEX
  8
0
 10
1.873248988445546
 20
15.874991427504629
 30
0.0
  0
VERTEX
  8
0
 10
1.5557491598954538
 20
15.874991427504629
 30
0.0
  0
VERTEX
  8
0
 10
1.4287492284754166
 20
15.938491393214647
 30
0.0
  0
VERTEX
  8
0
 10
1.3017492970553795
 20
16.001991358924666
 30
0.0
  0
VERTEX
  8
0
 10
1.0477494342153055
 20
16.25599122176474
 30
0.0
  0
VERTEX
  8
0
 10
0.85724953708525
 20
16.382991153184776
 30
0.0
  0
VERTEX
  8
0
 10
0.7302496056652129
 20
16.446491118894794
 30
0.0
  0
VERTEX
  8
0
 10
0.4762497428251389
 20
16.509991084604813
 30
0.0
  0
VERTEX
  8
0
 10
-0.2222498799850648
 20
16.509991084604813
 30
0.0
  0
VERTEX
  8
0
 10
-0.6032496742451758
 20
16.382991153184776
 30
0.0
  0
VERTEX
  8
0
 10
-1.238249331345361
 20
16.382991153184776
 30
0.0
  0
VERTEX
  8
0
 10
-1.4287492284754166
 20
16.509991084604813
 30
0.0
  0
VERTEX
  8
0
 10
-2.254248782705657
 20
16.509991084604813
 30
0.0
  0
VERTEX
  8
0
 10
-2.5717486112557495
 20
16.446491118894794
 30
0.0
  0
VERTEX
  8
0
 10
-2.952748405515861
 20
16.25599122176474
 30
0.0
  0
VERTEX
  8
0
 10
-3.587748062616046
 20
16.31949118747476
 30
0.0
  0
VERTEX
  8
0
 10
-4.032247822586176
 20
16.31949118747476
 30
0.0
  0
VERTEX
  8
0
 10
-4.28624768542625
 20
16.25599122176474
 30
0.0
  0
VERTEX
  8
0
 10
-4.413247616846287
 20
16.192491256054723
 30
0.0
  0
VERTEX
  8
0
 10
-4.540247548266324
 20
16.128991290344704
 30
0.0
  0
VERTEX
  8
0
 10
-4.6672474796863614
 20
16.001991358924666
 30
0.0
  0
VERTEX
  8
0
 10
-4.794247411106398
 20
15.938491393214647
 30
0.0
  0
VERTEX
  8
0
 10
-4.921247342526435
 20
15.874991427504629
 30
0.0
  0
VERTEX
  8
0
 10
-5.238747171076527
 20
15.811491461794612
 30
0.0
  0
VERTEX
  8
0
 10
-5.746746896756676
 20
15.557491598954536
 30
0.0
  0
VERTEX
  8
0
 10
-5.9372467938867315
 20
15.366991701824482
 30
0.0
  0
VERTEX
  8
0
 10
-6.127746691016787
 20
15.239991770404444
 30
0.0
  0
VERTEX
  8
0
 10
-6.254746622436825
 20
15.176491804694425
 30
0.0
  0
VERTEX
  8
0
 10
-6.508746485276898
 20
15.112991838984406
 30
0.0
  0
VERTEX
  8
0
 10
-7.016746210957045
 20
15.112991838984406
 30
0.0
  0
VERTEX
  8
0
 10
-7.2072461080871015
 20
14.985991907564369
 30
0.0
  0
VERTEX
  8
0
 10
-7.397746005217157
 20
14.985991907564369
 30
0.0
  0
VERTEX
  8
0
 10
-7.588245902347213
 20
14.92249194185435
 30
0.0
  0
VERTEX
  8
0
 10
-7.905745730897306
 20
14.731992044724295
 30
0.0
  0
VERTEX
  8
0
 10
-8.15974559373738
 20
14.731992044724295
 30
0.0
  0
VERTEX
  8
0
 10
-8.413745456577452
 20
14.47799218188422
 30
0.0
  0
VERTEX
  8
0
 10
-8.731245285127546
 20
14.350992250464184
 30
0.0
  0
VERTEX
  8
0
 10
-9.048745113677638
 20
14.03349242191409
 30
0.0
  0
VERTEX
  8
0
 10
-9.302744976517713
 20
13.969992456204075
 30
0.0
  0
VERTEX
  8
0
 10
-9.683744770777823
 20
13.588992661943962
 30
0.0
  0
VERTEX
  8
0
 10
-9.87424466790788
 20
13.525492696233943
 30
0.0
  0
VERTEX
  8
0
 10
-10.064744565037936
 20
13.334992799103889
 30
0.0
  0
VERTEX
  8
0
 10
-10.636244256428103
 20
13.080992936263813
 30
0.0
  0
VERTEX
  8
0
 10
-10.826744153558156
 20
12.82699307342374
 30
0.0
  0
VERTEX
  8
0
 10
-10.953744084978194
 20
12.763493107713721
 30
0.0
  0
VERTEX
  8
0
 10
-10.953744084978194
 20
12.572993210583665
 30
0.0
  0
VERTEX
  8
0
 10
-11.271243913528286
 20
12.191993416323555
 30
0.0
  0
VERTEX
  8
0
 10
-11.398243844948324
 20
12.128493450613536
 30
0.0
  0
VERTEX
  8
0
 10
-11.525243776368361
 20
12.06499348490352
 30
0.0
  0
VERTEX
  8
0
 10
-11.652243707788397
 20
12.06499348490352
 30
0.0
  0
VERTEX
  8
0
 10
-11.779243639208435
 20
12.0014935191935
 30
0.0
  0
VERTEX
  8
0
 10
-12.096743467758525
 20
11.683993690643407
 30
0.0
  0
VERTEX
  8
0
 10
-12.160243433468544
 20
11.493493793513352
 30
0.0
  0
VERTEX
  8
0
 10
-12.3507433305986
 20
11.239493930673277
 30
0.0
  0
VERTEX
  8
0
 10
-12.79524309056873
 20
10.794994170703147
 30
0.0
  0
VERTEX
  8
0
 10
-12.985742987698787
 20
10.540994307863073
 30
0.0
  0
VERTEX
  8
0
 10
-13.049242953408804
 20
10.350494410733017
 30
0.0
  0
VERTEX
  8
0
 10
-13.366742781958898
 20
10.032994582182926
 30
0.0
  0
VERTEX
  8
0
 10
-13.493742713378936
 20
9.84249468505287
 30
0.0
  0
VERTEX
  8
0
 10
-13.493742713378936
 20
9.651994787922813
 30
0.0
  0
VERTEX
  8
0
 10
-13.557242679088953
 20
9.524994856502778
 30
0.0
  0
VERTEX
  8
0
 10
-14.192242336189139
 20
8.889995199402591
 30
0.0
  0
VERTEX
  8
0
 10
-14.382742233319195
 20
8.63599533656252
 30
0.0
  0
VERTEX
  8
0
 10
-14.382742233319195
 20
8.508995405142482
 30
0.0
  0
VERTEX
  8
0
 10
-14.50974216473923
 20
8.318495508012425
 30
0.0
  0
VERTEX
  8
0
 10
-14.763742027579305
 20
8.064495645172352
 30
0.0
  0
VERTEX
  8
0
 10
-14.763742027579305
 20
7.937495713752314
 30
0.0
  0
VERTEX
  8
0
 10
-15.081241856129397
 20
7.492995953782184
 30
0.0
  0
VERTEX
  8
0
 10
-15.081241856129397
 20
6.667496399551944
 30
0.0
  0
VERTEX
  8
0
 10
-15.271741753259453
 20
6.476996502421889
 30
0.0
  0
VERTEX
  8
0
 10
-15.335241718969472
 20
6.349996571001851
 30
0.0
  0
VERTEX
  8
0
 10
-15.39874168467949
 20
6.095996708161778
 30
0.0
  0
VERTEX
  8
0
 10
-15.652741547519565
 20
5.7149969139016665
 30
0.0
  0
VERTEX
  8
0
 10
-15.652741547519565
 20
5.3339971196415545
 30
0.0
  0
VERTEX
  8
0
 10
-15.716241513229583
 20
5.079997256801482
 30
0.0
  0
VERTEX
  8
0
 10
-15.779741478939602
 20
4.825997393961407
 30
0.0
  0
VERTEX
  8
0
 10
-15.906741410359636
 20
4.69899746254137
 30
0.0
  0
VERTEX
  8
0
 10
-15.906741410359636
 20
4.571997531121333
 30
0.0
  0
VERTEX
  8
0
 10
-16.033741341779674
 20
4.444997599701296
 30
0.0
  0
VERTEX
  8
0
 10
-16.097241307489693
 20
4.127497771151203
 30
0.0
  0
VERTEX
  8
0
 10
-16.097241307489693
 20
3.682998011181074
 30
0.0
  0
VERTEX
  8
0
 10
-16.16074127319971
 20
3.428998148341
 30
0.0
  0
VERTEX
  8
0
 10
-16.22424123890973
 20
3.2384982512109444
 30
0.0
  0
VERTEX
  8
0
 10
-16.351241170329768
 20
3.1114983197909076
 30
0.0
  0
VERTEX
  8
0
 10
-16.414741136039787
 20
2.9209984226608516
 30
0.0
  0
VERTEX
  8
0
 10
-16.541741067459824
 20
2.476498662690722
 30
0.0
  0
VERTEX
  8
0
 10
-16.605241033169843
 20
2.095498868430611
 30
0.0
  0
VERTEX
  8
0
 10
-16.668740998879862
 20
1.6509991084604814
 30
0.0
  0
VERTEX
  8
0
 10
-16.668740998879862
 20
0.9524994856502778
 30
0.0
  0
VERTEX
  8
0
 10
-16.541741067459824
 20
0.6984996228102036
 30
0.0
  0
VERTEX
  8
0
 10
-16.541741067459824
 20
0.5714996913901667
 30
0.0
  0
VERTEX
  8
0
 10
-16.668740998879862
 20
0.3174998285500926
 30
0.0
  0
VERTEX
  8
0
 10
-16.668740998879862
 20
-0.6349996571001852
 30
0.0
  0
VERTEX
  8
0
 10
-16.541741067459824
 20
-0.9524994856502778
 30
0.0
  0
VERTEX
  8
0
 10
-16.541741067459824
 20
-1.5239991770404444
 30
0.0
  0
VERTEX
  8
0
 10
-16.478241101749806
 20
-1.7144990741705
 30
0.0
  0
VERTEX
  8
0
 10
-16.28774120461975
 20
-2.095498868430611
 30
0.0
  0
VERTEX
  8
0
 10
-16.351241170329768
 20
-2.6669985598207773
 30
0.0
  0
VERTEX
  8
0
 10
-16.351241170329768
 20
-3.047998354080889
 30
0.0
  0
VERTEX
  8
0
 10
-16.28774120461975
 20
-3.1114983197909076
 30
0.0
  0
VERTEX
  8
0
 10
-16.28774120461975
 20
-3.5559980797610367
 30
0.0
  0
VERTEX
  8
0
 10
-16.22424123890973
 20
-3.936997874021148
 30
0.0
  0
VERTEX
  8
0
 10
-16.16074127319971
 20
-4.190997736861222
 30
0.0
  0
VERTEX
  8
0
 10
-15.970241376069655
 20
-4.508497565411314
 30
0.0
  0
VERTEX
  8
0
 10
-15.906741410359636
 20
-5.270497153931537
 30
0.0
  0
VERTEX
  8
0
 10
-15.779741478939602
 20
-5.587996982481629
 30
0.0
  0
VERTEX
  8
0
 10
-15.589241581809546
 20
-5.778496879611685
 30
0.0
  0
VERTEX
  8
0
 10
-15.525741616099527
 20
-5.905496811031722
 30
0.0
  0
VERTEX
  8
0
 10
-15.525741616099527
 20
-6.095996708161778
 30
0.0
  0
VERTEX
  8
0
 10
-15.39874168467949
 20
-6.286496605291832
 30
0.0
  0
VERTEX
  8
0
 10
-15.39874168467949
 20
-6.6039964338419255
 30
0.0
  0
VERTEX
  8
0
 10
-15.208241787549435
 20
-6.794496330971981
 30
0.0
  0
VERTEX
  8
0
 10
-15.144741821839416
 20
-6.921496262392019
 30
0.0
  0
VERTEX
  8
0
 10
-15.144741821839416
 20
-7.111996159522073
 30
0.0
  0
VERTEX
  8
0
 10
-15.017741890419378
 20
-7.302496056652129
 30
0.0
  0
VERTEX
  8
0
 10
-14.890741958999342
 20
-7.492995953782184
 30
0.0
  0
VERTEX
  8
0
 10
-14.636742096159267
 20
-7.746995816622259
 30
0.0
  0
VERTEX
  8
0
 10
-14.319242267609177
 20
-8.191495576592388
 30
0.0
  0
VERTEX
  8
0
 10
-14.192242336189139
 20
-8.381995473722444
 30
0.0
  0
VERTEX
  8
0
 10
-14.192242336189139
 20
-8.508995405142482
 30
0.0
  0
VERTEX
  8
0
 10
-14.001742439059083
 20
-8.762995267982555
 30
0.0
  0
VERTEX
  8
0
 10
-13.30324281624888
 20
-9.461494890792759
 30
0.0
  0
VERTEX
  8
0
 10
-13.176242884828842
 20
-9.651994787922813
 30
0.0
  0
VERTEX
  8
0
 10
-13.112742919118823
 20
-9.778994719342851
 30
0.0
  0
VERTEX
  8
0
 10
-13.112742919118823
 20
-9.905994650762889
 30
0.0
  0
VERTEX
  8
0
 10
-13.049242953408804
 20
-10.032994582182926
 30
0.0
  0
VERTEX
  8
0
 10
-12.85874305627875
 20
-10.286994445022998
 30
0.0
  0
VERTEX
  8
0
 10
-12.668243159148693
 20
-10.540994307863073
 30
0.0
  0
VERTEX
  8
0
 10
-12.160243433468544
 20
-11.048994033543222
 30
0.0
  0
VERTEX
  8
0
 10
-11.969743536338491
 20
-11.11249399925324
 30
0.0
  0
VERTEX
  8
0
 10
-11.715743673498416
 20
-11.302993896383295
 30
0.0
  0
VERTEX
  8
0
 10
-11.334743879238305
 20
-11.683993690643407
 30
0.0
  0
VERTEX
  8
0
 10
-11.334743879238305
 20
-11.874493587773463
 30
0.0
  0
VERTEX
  8
0
 10
-11.271243913528286
 20
-12.0014935191935
 30
0.0
  0
VERTEX
  8
0
 10
-10.953744084978194
 20
-12.318993347743593
 30
0.0
  0
VERTEX
  8
0
 10
-10.953744084978194
 20
-12.382493313453612
 30
0.0
  0
VERTEX
  8
0
 10
-10.699744222138118
 20
-12.636493176293683
 30
0.0
  0
VERTEX
  8
0
 10
-10.382244393588028
 20
-12.890493039133759
 30
0.0
  0
VERTEX
  8
0
 10
-10.191744496457972
 20
-12.953993004843777
 30
0.0
  0
VERTEX
  8
0
 10
-10.001244599327917
 20
-13.144492901973832
 30
0.0
  0
VERTEX
  8
0
 10
-9.81074470219786
 20
-13.144492901973832
 30
0.0
  0
VERTEX
  8
0
 10
-9.683744770777823
 20
-13.207992867683851
 30
0.0
  0
VERTEX
  8
0
 10
-9.239245010807695
 20
-13.525492696233943
 30
0.0
  0
VERTEX
  8
0
 10
-8.604245353707508
 20
-14.096992387624109
 30
0.0
  0
VERTEX
  8
0
 10
-8.47724542228747
 20
-14.160492353334128
 30
0.0
  0
VERTEX
  8
0
 10
-8.350245490867435
 20
-14.160492353334128
 30
0.0
  0
VERTEX
  8
0
 10
-8.223245559447397
 20
-14.223992319044147
 30
0.0
  0
VERTEX
  8
0
 10
-7.905745730897306
 20
-14.414492216174203
 30
0.0
  0
VERTEX
  8
0
 10
-7.715245833767249
 20
-14.604992113304258
 30
0.0
  0
VERTEX
  8
0
 10
-7.524745936637194
 20
-14.604992113304258
 30
0.0
  0
VERTEX
  8
0
 10
-7.397746005217157
 20
-14.668492079014277
 30
0.0
  0
VERTEX
  8
0
 10
-7.2072461080871015
 20
-14.795492010434314
 30
0.0
  0
VERTEX
  8
0
 10
-6.762746348116972
 20
-15.239991770404444
 30
0.0
  0
VERTEX
  8
0
 10
-6.572246450986916
 20
-15.366991701824482
 30
0.0
  0
VERTEX
  8
0
 10
-6.318246588146842
 20
-15.493991633244518
 30
0.0
  0
VERTEX
  8
0
 10
-5.9372467938867315
 20
-15.684491530374574
 30
0.0
  0
VERTEX
  8
0
 10
-5.55624699962662
 20
-15.684491530374574
 30
0.0
  0
VERTEX
  8
0
 10
-5.302247136786546
 20
-15.874991427504629
 30
0.0
  0
VERTEX
  8
0
 10
-4.857747376816416
 20
-15.874991427504629
 30
0.0
  0
VERTEX
  8
0
 10
-4.603747513976343
 20
-15.938491393214647
 30
0.0
  0
VERTEX
  8
0
 10
-4.413247616846287
 20
-16.065491324634685
 30
0.0
  0
VERTEX
  8
0
 10
-4.095747788296194
 20
-16.128991290344704
 30
0.0
  0
VERTEX
  8
0
 10
-3.206748268355935
 20
-16.192491256054723
 30
0.0
  0
SEQEND
  0
ENDSEC
  0
EOF
