  0
SECTION
  2
HEADER
  9
$ACADVER
  1
AC1009
  9
$INSBASE
 10
0.0
 20
0.0
 30
0.0
  9
$EXTMIN
 10
0.0
 20
0.0
 30
0.0
  9
$EXTMAX
 10
100.0
 20
100.0
 30
0.0
  9
$UNITMODE
 70
0
  9
$AUNITS
 70
0
  9
$ANGBASE
 50
0.0
  9
$ANGDIR
 70
0
  9
$INSUNITS
 70
4
  9
$MEASUREMENT
 70
1
  0
ENDSEC
  0
SECTION
  2
TABLES
  0
TABLE
  2
LTYPE
 70
19
  0
LTYPE
  2
CONTINUOUS
 70
0
  3
Solid
 72
65
 73
0
 40
0.0
  0
LTYPE
  2
CENTER
 70
0
  3
Center ____ _ ____ _ ____ _ ____ _ ____ _ ____
 72
65
 73
4
 40
2.0
 49
1.25
 49
-0.25
 49
0.25
 49
-0.25
  0
LTYPE
  2
CENTERX2
 70
0
  3
Center (2x) ________  __  ________  __  ________
 72
65
 73
4
 40
3.5
 49
2.5
 49
-0.25
 49
0.5
 49
-0.25
  0
LTYPE
  2
CENTER2
 70
0
  3
Center (.5x) ____ _ ____ _ ____ _ ____ _ ____
 72
65
 73
4
 40
1.0
 49
0.625
 49
-0.125
 49
0.125
 49
-0.125
  0
LTYPE
  2
DASHED
 70
0
  3
Dashed __ __ __ __ __ __ __ __ __ __ __ __ __ _
 72
65
 73
2
 40
0.6
 49
0.5
 49
-0.1
  0
LTYPE
  2
DASHEDX2
 70
0
  3
Dashed (2x) ____  ____  ____  ____  ____  ____
 72
65
 73
2
 40
1.2
 49
1.0
 49
-0.2
  0
LTYPE
  2
DASHED2
 70
0
  3
Dashed (.5x) _ _ _ _ _ _ _ _ _ _ _ _ _ _
 72
65
 73
2
 40
0.3
 49
0.25
 49
-0.05
  0
LTYPE
  2
PHANTOM
 70
0
  3
Phantom ______  __  __  ______  __  __  ______
 72
65
 73
6
 40
2.5
 49
1.25
 49
-0.25
 49
0.25
 49
-0.25
 49
0.25
 49
-0.25
  0
LTYPE
  2
PHANTOMX2
 70
0
  3
Phantom (2x)____________    ____    ____    ____________
 72
65
 73
6
 40
4.25
 49
2.5
 49
-0.25
 49
0.5
 49
-0.25
 49
0.5
 49
-0.25
  0
LTYPE
  2
PHANTOM2
 70
0
  3
Phantom (.5x) ___ _ _ ___ _ _ ___ _ _ ___ _ _ ___
 72
65
 73
6
 40
1.25
 49
0.625
 49
-0.125
 49
0.125
 49
-0.125
 49
0.125
 49
-0.125
  0
LTYPE
  2
DASHDOT
 70
0
  3
Dash dot __ . __ . __ . __ . __ . __ . __ . __
 72
65
 73
4
 40
1.4
 49
1.0
 49
-0.2
 49
0.0
 49
-0.2
  0
LTYPE
  2
DASHDOTX2
 70
0
  3
Dash dot (2x) ____  .  ____  .  ____  .  ____
 72
65
 73
4
 40
2.4
 49
2.0
 49
-0.2
 49
0.0
 49
-0.2
  0
LTYPE
  2
DASHDOT2
 70
0
  3
Dash dot (.5x) _ . _ . _ . _ . _ . _ . _ . _
 72
65
 73
4
 40
0.7
 49
0.5
 49
-0.1
 49
0.0
 49
-0.1
  0
LTYPE
  2
DOT
 70
0
  3
Dot .  .  .  .  .  .  .  .  .  .  .  .  .  .  .  .
 72
65
 73
2
 40
0.2
 49
0.0
 49
-0.2
  0
LTYPE
  2
DOTX2
 70
0
  3
Dot (2x) .    .    .    .    .    .    .    . 
 72
65
 73
2
 40
0.4
 49
0.0
 49
-0.4
  0
LTYPE
  2
DOT2
 70
0
  3
Dot (.5) . . . . . . . . . . . . . . . . . . . 
 72
65
 73
2
 40
0.1
 49
0.0
 49
-0.1
  0
LTYPE
  2
DIVIDE
 70
0
  3
Divide __ . . __ . . __ . . __ . . __ . . __
 72
65
 73
6
 40
1.6
 49
1.0
 49
-0.2
 49
0.0
 49
-0.2
 49
0.0
 49
-0.2
  0
LTYPE
  2
DIVIDEX2
 70
0
  3
Divide (2x) ____  . .  ____  . .  ____  . .  ____
 72
65
 73
6
 40
2.6
 49
2.0
 49
-0.2
 49
0.0
 49
-0.2
 49
0.0
 49
-0.2
  0
LTYPE
  2
DIVIDE2
 70
0
  3
Divide(.5x) _ . _ . _ . _ . _ . _ . _ . _
 72
65
 73
6
 40
0.8
 49
0.5
 49
-0.1
 49
0.0
 49
-0.1
 49
0.0
 49
-0.1
  0
ENDTAB
  0
TABLE
  2
LAYER
 70
5
  0
LAYER
  2
DIMENSIONS
 70
0
 62
1
  6
CONTINUOUS
  0
LAYER
  2
TABLEBACKGROUND
 70
0
 62
1
  6
CONTINUOUS
  0
LAYER
  2
TABLECONTENT
 70
0
 62
1
  6
CONTINUOUS
  0
LAYER
  2
TABLEGRID
 70
0
 62
1
  6
CONTINUOUS
  0
LAYER
  2
VIEWPORTS
 70
0
 62
7
  6
CONTINUOUS
  0
ENDTAB
  0
TABLE
  2
STYLE
 70
12
  0
STYLE
  2
STANDARD
 70
0
 40
0.0
 41
1.0
 42
1.0
 50
0.0
 71
0
  3
arial.ttf
  4

  0
STYLE
  2
ARIAL
 70
0
 40
0.0
 41
1.0
 42
1.0
 50
0.0
 71
0
  3
arial.ttf
  4

  0
STYLE
  2
ARIAL_BOLD
 70
0
 40
0.0
 41
1.0
 42
1.0
 50
0.0
 71
0
  3
arialbd.ttf
  4

  0
STYLE
  2
ARIAL_ITALIC
 70
0
 40
0.0
 41
1.0
 42
1.0
 50
0.0
 71
0
  3
ariali.ttf
  4

  0
STYLE
  2
ARIAL_BOLD_ITALIC
 70
0
 40
0.0
 41
1.0
 42
1.0
 50
0.0
 71
0
  3
arialbi.ttf
  4

  0
STYLE
  2
ARIAL_BLACK
 70
0
 40
0.0
 41
1.0
 42
1.0
 50
0.0
 71
0
  3
ariblk.ttf
  4

  0
STYLE
  2
ISOCPEUR
 70
0
 40
0.0
 41
1.0
 42
1.0
 50
0.0
 71
0
  3
isocpeur.ttf
  4

  0
STYLE
  2
ISOCPEUR_ITALIC
 70
0
 40
0.0
 41
1.0
 42
1.0
 50
0.0
 71
0
  3
isocpeui.ttf
  4

  0
STYLE
  2
TIMES
 70
0
 40
0.0
 41
1.0
 42
1.0
 50
0.0
 71
0
  3
times.ttf
  4

  0
STYLE
  2
TIMES_BOLD
 70
0
 40
0.0
 41
1.0
 42
1.0
 50
0.0
 71
0
  3
timesbd.ttf
  4

  0
STYLE
  2
TIMES_ITALIC
 70
0
 40
0.0
 41
1.0
 42
1.0
 50
0.0
 71
0
  3
timesi.ttf
  4

  0
STYLE
  2
TIMES_BOLD_ITALIC
 70
0
 40
0.0
 41
1.0
 42
1.0
 50
0.0
 71
0
  3
timesbi.ttf
  4

  0
ENDTAB
  0
TABLE
  2
VIEW
 70
0
  0
ENDTAB
  0
TABLE
  2
APPID
 70
1
  0
APPID
  2
DXFWRITE
 70
0
  0
ENDTAB
  0
TABLE
  2
VPORT
 70
0
  0
ENDTAB
  0
TABLE
  2
UCS
 70
0
  0
ENDTAB
  0
ENDSEC
  0
SECTION
  2
BLOCKS
  0
ENDSEC
  0
SECTION
  2
ENTITIES
  0
VIEWPORT
  8
VIEWPORTS
 67
1
 10
0.0
 20
0.0
 30
0.0
 40
1.0
 41
1.0
 68
1
 69
1
1001
ACAD
1000
MVIEW
1002
{
1070
16
1010
0.0
1020
0.0
1030
0.0
1010
0.0
1020
0.0
1030
0.0
1040
0.0
1040
1.0
1040
0.0
1040
0.0
1040
50.0
1040
0.0
1040
0.0
1070
0
1070
100
1070
1
1070
3
1070
0
1070
0
1070
0
1070
0
1040
0.0
1040
0.0
1040
0.0
1040
0.1
1040
0.1
1040
0.1
1040
0.1
1070
0
1002
{
1002
}
1002
}
  0
POLYLINE
  8
0
 66
1
 10
0.0
 20
0.0
 30
0.0
 70
1
  0
VERTEX
  8
0
 10
-1.2064993484903517
 20
-23.17748748415676
 30
0.0
  0
VERTEX
  8
0
 10
-1.968498937010574
 20
-23.11398751844674
 30
0.0
  0
VERTEX
  8
0
 10
-2.2859987655606666
 20
-22.986987587026704
 30
0.0
  0
VERTEX
  8
0
 10
-3.047998354080889
 20
-22.986987587026704
 30
0.0
  0
VERTEX
  8
0
 10
-3.4924981140510187
 20
-22.859987655606666
 30
0.0
  0
VERTEX
  8
0
 10
-3.936997874021148
 20
-22.859987655606666
 30
0.0
  0
VERTEX
  8
0
 10
-4.190997736861222
 20
-22.796487689896647
 30
0.0
  0
VERTEX
  8
0
 10
-4.444997599701296
 20
-22.66948775847661
 30
0.0
  0
VERTEX
  8
0
 10
-5.079997256801482
 20
-22.60598779276659
 30
0.0
  0
VERTEX
  8
0
 10
-6.6039964338419255
 20
-22.22498799850648
 30
0.0
  0
VERTEX
  8
0
 10
-7.4294959880721665
 20
-21.970988135666406
 30
0.0
  0
VERTEX
  8
0
 10
-8.000995679462333
 20
-21.78048823853635
 30
0.0
  0
VERTEX
  8
0
 10
-8.318495508012425
 20
-21.653488307116312
 30
0.0
  0
VERTEX
  8
0
 10
-8.95349516511261
 20
-21.335988478566218
 30
0.0
  0
VERTEX
  8
0
 10
-9.334494959372723
 20
-21.272488512856206
 30
0.0
  0
VERTEX
  8
0
 10
-9.524994856502778
 20
-21.208988547146184
 30
0.0
  0
VERTEX
  8
0
 10
-9.969494616472907
 20
-21.01848865001613
 30
0.0
  0
VERTEX
  8
0
 10
-10.096494547892945
 20
-20.95498868430611
 30
0.0
  0
VERTEX
  8
0
 10
-10.22349447931298
 20
-20.82798875288607
 30
0.0
  0
VERTEX
  8
0
 10
-11.11249399925324
 20
-20.44698895862596
 30
0.0
  0
VERTEX
  8
0
 10
-11.683993690643407
 20
-20.12948913007587
 30
0.0
  0
VERTEX
  8
0
 10
-12.0014935191935
 20
-19.875489267235796
 30
0.0
  0
VERTEX
  8
0
 10
-12.318993347743593
 20
-19.74848933581576
 30
0.0
  0
VERTEX
  8
0
 10
-13.080992936263813
 20
-19.240489610135608
 30
0.0
  0
VERTEX
  8
0
 10
-13.334992799103889
 20
-19.049989713005555
 30
0.0
  0
VERTEX
  8
0
 10
-13.65249262765398
 20
-18.73248988445546
 30
0.0
  0
VERTEX
  8
0
 10
-14.096992387624109
 20
-18.47849002161539
 30
0.0
  0
VERTEX
  8
0
 10
-14.350992250464184
 20
-18.287990124485333
 30
0.0
  0
VERTEX
  8
0
 10
-15.049491873274388
 20
-17.716490433095167
 30
0.0
  0
VERTEX
  8
0
 10
-15.874991427504629
 20
-16.95449084457494
 30
0.0
  0
VERTEX
  8
0
 10
-16.95449084457494
 20
-15.874991427504629
 30
0.0
  0
VERTEX
  8
0
 10
-17.27199067312504
 20
-15.493991633244518
 30
0.0
  0
VERTEX
  8
0
 10
-17.52599053596511
 20
-15.176491804694425
 30
0.0
  0
VERTEX
  8
0
 10
-17.90699033022522
 20
-14.604992113304258
 30
0.0
  0
VERTEX
  8
0
 10
-18.160990193065295
 20
-14.350992250464184
 30
0.0
  0
VERTEX
  8
0
 10
-18.41499005590537
 20
-14.03349242191409
 30
0.0
  0
VERTEX
  8
0
 10
-18.47849002161539
 20
-13.842992524784037
 30
0.0
  0
VERTEX
  8
0
 10
-18.79598985016548
 20
-13.525492696233943
 30
0.0
  0
VERTEX
  8
0
 10
-19.303989575845627
 20
-12.763493107713721
 30
0.0
  0
VERTEX
  8
0
 10
-19.557989438685702
 20
-12.191993416323555
 30
0.0
  0
VERTEX
  8
0
 10
-19.875489267235796
 20
-11.810993622063444
 30
0.0
  0
VERTEX
  8
0
 10
-20.002489198655834
 20
-11.620493724933388
 30
0.0
  0
VERTEX
  8
0
 10
-20.12948913007587
 20
-11.429993827803333
 30
0.0
  0
VERTEX
  8
0
 10
-20.12948913007587
 20
-11.302993896383295
 30
0.0
  0
VERTEX
  8
0
 10
-20.19298909578589
 20
-11.175993964963258
 30
0.0
  0
VERTEX
  8
0
 10
-20.44698895862596
 20
-10.921994102123184
 30
0.0
  0
VERTEX
  8
0
 10
-20.51048892433598
 20
-10.667994239283109
 30
0.0
  0
VERTEX
  8
0
 10
-20.700988821466034
 20
-10.477494342153054
 30
0.0
  0
VERTEX
  8
0
 10
-20.700988821466034
 20
-10.350494410733017
 30
0.0
  0
VERTEX
  8
0
 10
-20.82798875288607
 20
-10.22349447931298
 30
0.0
  0
VERTEX
  8
0
 10
-21.081988615726146
 20
-9.651994787922813
 30
0.0
  0
VERTEX
  8
0
 10
-21.335988478566218
 20
-9.080495096532648
 30
0.0
  0
VERTEX
  8
0
 10
-21.462988409986256
 20
-8.762995267982555
 30
0.0
  0
VERTEX
  8
0
 10
-21.462988409986256
 20
-8.5724953708525
 30
0.0
  0
VERTEX
  8
0
 10
-21.589988341406293
 20
-8.445495439432463
 30
0.0
  0
VERTEX
  8
0
 10
-21.71698827282633
 20
-8.12799561088237
 30
0.0
  0
VERTEX
  8
0
 10
-21.71698827282633
 20
-7.937495713752314
 30
0.0
  0
VERTEX
  8
0
 10
-21.84398820424637
 20
-7.810495782332278
 30
0.0
  0
VERTEX
  8
0
 10
-21.84398820424637
 20
-7.556495919492203
 30
0.0
  0
VERTEX
  8
0
 10
-21.970988135666406
 20
-7.4294959880721665
 30
0.0
  0
VERTEX
  8
0
 10
-22.034488101376425
 20
-7.23899609094211
 30
0.0
  0
VERTEX
  8
0
 10
-22.288487964216497
 20
-6.41349653671187
 30
0.0
  0
VERTEX
  8
0
 10
-22.288487964216497
 20
-6.1594966738717964
 30
0.0
  0
VERTEX
  8
0
 10
-22.415487895636534
 20
-5.905496811031722
 30
0.0
  0
VERTEX
  8
0
 10
-22.415487895636534
 20
-5.651496948191648
 30
0.0
  0
VERTEX
  8
0
 10
-22.60598779276659
 20
-5.143497222511499
 30
0.0
  0
VERTEX
  8
0
 10
-22.73298772418663
 20
-4.635497496831352
 30
0.0
  0
VERTEX
  8
0
 10
-22.73298772418663
 20
-4.31799766828126
 30
0.0
  0
VERTEX
  8
0
 10
-22.859987655606666
 20
-4.000497839731167
 30
0.0
  0
VERTEX
  8
0
 10
-22.859987655606666
 20
-3.619498045471055
 30
0.0
  0
VERTEX
  8
0
 10
-22.986987587026704
 20
-3.2384982512109444
 30
0.0
  0
VERTEX
  8
0
 10
-22.986987587026704
 20
-2.730498525530796
 30
0.0
  0
VERTEX
  8
0
 10
-23.050487552736723
 20
-2.349498731270685
 30
0.0
  0
VERTEX
  8
0
 10
-23.17748748415676
 20
-2.0319989027205927
 30
0.0
  0
VERTEX
  8
0
 10
-23.240987449866775
 20
-1.4604992113304258
 30
0.0
  0
VERTEX
  8
0
 10
-23.304487415576794
 20
-0.2539998628400741
 30
0.0
  0
VERTEX
  8
0
 10
-23.304487415576794
 20
1.4604992113304258
 30
0.0
  0
VERTEX
  8
0
 10
-23.240987449866775
 20
2.4129986969807034
 30
0.0
  0
VERTEX
  8
0
 10
-23.11398751844674
 20
2.8574984569508333
 30
0.0
  0
VERTEX
  8
0
 10
-23.11398751844674
 20
3.4924981140510187
 30
0.0
  0
VERTEX
  8
0
 10
-23.050487552736723
 20
4.000497839731167
 30
0.0
  0
VERTEX
  8
0
 10
-22.923487621316685
 20
4.31799766828126
 30
0.0
  0
VERTEX
  8
0
 10
-22.923487621316685
 20
4.69899746254137
 30
0.0
  0
VERTEX
  8
0
 10
-22.73298772418663
 20
5.270497153931537
 30
0.0
  0
VERTEX
  8
0
 10
-22.66948775847661
 20
5.651496948191648
 30
0.0
  0
VERTEX
  8
0
 10
-22.60598779276659
 20
6.03249674245176
 30
0.0
  0
VERTEX
  8
0
 10
-22.60598779276659
 20
6.476996502421889
 30
0.0
  0
VERTEX
  8
0
 10
-22.415487895636534
 20
7.23899609094211
 30
0.0
  0
VERTEX
  8
0
 10
-22.161488032796463
 20
7.937495713752314
 30
0.0
  0
VERTEX
  8
0
 10
-22.161488032796463
 20
8.191495576592388
 30
0.0
  0
VERTEX
  8
0
 10
-21.970988135666406
 20
8.762995267982555
 30
0.0
  0
VERTEX
  8
0
 10
-21.84398820424637
 20
9.207495027952685
 30
0.0
  0
VERTEX
  8
0
 10
-21.653488307116312
 20
9.715494753632832
 30
0.0
  0
VERTEX
  8
0
 10
-21.589988341406293
 20
9.905994650762889
 30
0.0
  0
VERTEX
  8
0
 10
-21.399488444276237
 20
10.159994513602964
 30
0.0
  0
VERTEX
  8
0
 10
-21.272488512856206
 20
10.604494273573092
 30
0.0
  0
VERTEX
  8
0
 10
-21.208988547146184
 20
10.731494204993128
 30
0.0
  0
VERTEX
  8
0
 10
-20.95498868430611
 20
11.048994033543222
 30
0.0
  0
VERTEX
  8
0
 10
-20.82798875288607
 20
11.239493930673277
 30
0.0
  0
VERTEX
  8
0
 10
-20.82798875288607
 20
11.366493862093314
 30
0.0
  0
VERTEX
  8
0
 10
-20.63748885575602
 20
11.683993690643407
 30
0.0
  0
VERTEX
  8
0
 10
-20.44698895862596
 20
11.874493587773463
 30
0.0
  0
VERTEX
  8
0
 10
-19.938989232945815
 20
12.699993142003702
 30
0.0
  0
VERTEX
  8
0
 10
-19.811989301525777
 20
13.017492970553796
 30
0.0
  0
VERTEX
  8
0
 10
-19.62148940439572
 20
13.334992799103889
 30
0.0
  0
VERTEX
  8
0
 10
-19.430989507265664
 20
13.588992661943962
 30
0.0
  0
VERTEX
  8
0
 10
-19.176989644425593
 20
13.842992524784037
 30
0.0
  0
VERTEX
  8
0
 10
-19.049989713005555
 20
14.03349242191409
 30
0.0
  0
VERTEX
  8
0
 10
-18.922989781585517
 20
14.223992319044147
 30
0.0
  0
VERTEX
  8
0
 10
-18.922989781585517
 20
14.350992250464184
 30
0.0
  0
VERTEX
  8
0
 10
-18.605489953035427
 20
14.731992044724295
 30
0.0
  0
VERTEX
  8
0
 10
-18.47849002161539
 20
15.049491873274388
 30
0.0
  0
VERTEX
  8
0
 10
-18.097490227355276
 20
15.430491667534499
 30
0.0
  0
VERTEX
  8
0
 10
-18.033990261645258
 20
15.620991564664555
 30
0.0
  0
VERTEX
  8
0
 10
-17.8434903645152
 20
15.811491461794612
 30
0.0
  0
VERTEX
  8
0
 10
-17.779990398805182
 20
16.001991358924666
 30
0.0
  0
VERTEX
  8
0
 10
-17.52599053596511
 20
16.31949118747476
 30
0.0
  0
VERTEX
  8
0
 10
-17.27199067312504
 20
16.63699101602485
 30
0.0
  0
VERTEX
  8
0
 10
-16.890990878864926
 20
17.08149077599498
 30
0.0
  0
VERTEX
  8
0
 10
-16.446491118894794
 20
17.52599053596511
 30
0.0
  0
VERTEX
  8
0
 10
-16.382991153184776
 20
17.52599053596511
 30
0.0
  0
VERTEX
  8
0
 10
-15.874991427504629
 20
18.033990261645258
 30
0.0
  0
VERTEX
  8
0
 10
-15.366991701824482
 20
18.47849002161539
 30
0.0
  0
VERTEX
  8
0
 10
-15.112991838984406
 20
18.668989918745446
 30
0.0
  0
VERTEX
  8
0
 10
-14.350992250464184
 20
19.176989644425593
 30
0.0
  0
VERTEX
  8
0
 10
-14.223992319044147
 20
19.240489610135608
 30
0.0
  0
VERTEX
  8
0
 10
-14.096992387624109
 20
19.303989575845627
 30
0.0
  0
VERTEX
  8
0
 10
-13.588992661943962
 20
19.494489472975683
 30
0.0
  0
VERTEX
  8
0
 10
-13.080992936263813
 20
19.68498937010574
 30
0.0
  0
VERTEX
  8
0
 10
-12.890493039133759
 20
19.68498937010574
 30
0.0
  0
VERTEX
  8
0
 10
-12.572993210583665
 20
19.875489267235796
 30
0.0
  0
VERTEX
  8
0
 10
-12.382493313453612
 20
19.875489267235796
 30
0.0
  0
VERTEX
  8
0
 10
-11.874493587773463
 20
20.12948913007587
 30
0.0
  0
VERTEX
  8
0
 10
-11.366493862093314
 20
20.25648906149591
 30
0.0
  0
VERTEX
  8
0
 10
-11.048994033543222
 20
20.44698895862596
 30
0.0
  0
VERTEX
  8
0
 10
-10.604494273573092
 20
20.573988890045996
 30
0.0
  0
VERTEX
  8
0
 10
-10.159994513602964
 20
20.700988821466034
 30
0.0
  0
VERTEX
  8
0
 10
-9.905994650762889
 20
20.700988821466034
 30
0.0
  0
VERTEX
  8
0
 10
-9.207495027952685
 20
20.891488718596094
 30
0.0
  0
VERTEX
  8
0
 10
-9.016995130822629
 20
21.01848865001613
 30
0.0
  0
VERTEX
  8
0
 10
-8.762995267982555
 20
21.081988615726146
 30
0.0
  0
VERTEX
  8
0
 10
-8.254995542302407
 20
21.208988547146184
 30
0.0
  0
VERTEX
  8
0
 10
-7.937495713752314
 20
21.208988547146184
 30
0.0
  0
VERTEX
  8
0
 10
-7.746995816622259
 20
21.335988478566218
 30
0.0
  0
VERTEX
  8
0
 10
-7.302496056652129
 20
21.462988409986256
 30
0.0
  0
VERTEX
  8
0
 10
-6.349996571001851
 20
21.653488307116312
 30
0.0
  0
VERTEX
  8
0
 10
-5.905496811031722
 20
21.84398820424637
 30
0.0
  0
VERTEX
  8
0
 10
-5.651496948191648
 20
21.84398820424637
 30
0.0
  0
VERTEX
  8
0
 10
-5.460997051061592
 20
21.970988135666406
 30
0.0
  0
VERTEX
  8
0
 10
-5.270497153931537
 20
22.034488101376425
 30
0.0
  0
VERTEX
  8
0
 10
-5.016497291091463
 20
22.034488101376425
 30
0.0
  0
VERTEX
  8
0
 10
-4.571997531121333
 20
22.22498799850648
 30
0.0
  0
VERTEX
  8
0
 10
-3.3654981826309815
 20
22.478987861346553
 30
0.0
  0
VERTEX
  8
0
 10
-2.9844983883708704
 20
22.66948775847661
 30
0.0
  0
VERTEX
  8
0
 10
-2.6669985598207773
 20
22.66948775847661
 30
0.0
  0
VERTEX
  8
0
 10
-2.4129986969807034
 20
22.73298772418663
 30
0.0
  0
VERTEX
  8
0
 10
-2.15899883414063
 20
22.859987655606666
 30
0.0
  0
VERTEX
  8
0
 10
-1.9049989713005555
 20
22.923487621316685
 30
0.0
  0
VERTEX
  8
0
 10
-1.5239991770404444
 20
22.923487621316685
 30
0.0
  0
VERTEX
  8
0
 10
-1.2699993142003705
 20
23.050487552736723
 30
0.0
  0
VERTEX
  8
0
 10
-1.0159994513602963
 20
23.11398751844674
 30
0.0
  0
VERTEX
  8
0
 10
1.5874991427504628
 20
23.11398751844674
 30
0.0
  0
VERTEX
  8
0
 10
1.841499005590537
 20
22.986987587026704
 30
0.0
  0
VERTEX
  8
0
 10
2.2859987655606666
 20
23.050487552736723
 30
0.0
  0
VERTEX
  8
0
 10
2.6669985598207773
 20
22.986987587026704
 30
0.0
  0
VERTEX
  8
0
 10
2.9844983883708704
 20
22.923487621316685
 30
0.0
  0
VERTEX
  8
0
 10
3.1749982855009256
 20
22.796487689896647
 30
0.0
  0
VERTEX
  8
0
 10
3.428998148341
 20
22.73298772418663
 30
0.0
  0
VERTEX
  8
0
 10
3.936997874021148
 20
22.73298772418663
 30
0.0
  0
VERTEX
  8
0
 10
4.444997599701296
 20
22.542487827056572
 30
0.0
  0
VERTEX
  8
0
 10
5.079997256801482
 20
22.478987861346553
 30
0.0
  0
VERTEX
  8
0
 10
5.460997051061592
 20
22.415487895636534
 30
0.0
  0
VERTEX
  8
0
 10
5.7149969139016665
 20
22.288487964216497
 30
0.0
  0
VERTEX
  8
0
 10
5.968996776741741
 20
22.288487964216497
 30
0.0
  0
VERTEX
  8
0
 10
6.349996571001851
 20
22.097988067086444
 30
0.0
  0
VERTEX
  8
0
 10
6.667496399551944
 20
22.097988067086444
 30
0.0
  0
VERTEX
  8
0
 10
7.0484961938120545
 20
21.970988135666406
 30
0.0
  0
VERTEX
  8
0
 10
7.683495850912241
 20
21.78048823853635
 30
0.0
  0
VERTEX
  8
0
 10
7.873995748042296
 20
21.71698827282633
 30
0.0
  0
VERTEX
  8
0
 10
8.064495645172352
 20
21.653488307116312
 30
0.0
  0
VERTEX
  8
0
 10
9.080495096532648
 20
21.272488512856206
 30
0.0
  0
VERTEX
  8
0
 10
10.032994582182926
 20
20.82798875288607
 30
0.0
  0
VERTEX
  8
0
 10
11.11249399925324
 20
20.319989027205928
 30
0.0
  0
VERTEX
  8
0
 10
11.493493793513352
 20
20.12948913007587
 30
0.0
  0
VERTEX
  8
0
 10
11.683993690643407
 20
19.938989232945815
 30
0.0
  0
VERTEX
  8
0
 10
11.937993553483482
 20
19.875489267235796
 30
0.0
  0
VERTEX
  8
0
 10
12.255493382033574
 20
19.68498937010574
 30
0.0
  0
VERTEX
  8
0
 10
12.572993210583665
 20
19.367489541555646
 30
0.0
  0
VERTEX
  8
0
 10
13.017492970553796
 20
19.176989644425593
 30
0.0
  0
VERTEX
  8
0
 10
13.588992661943962
 20
18.79598985016548
 30
0.0
  0
VERTEX
  8
0
 10
14.414492216174203
 20
18.160990193065295
 30
0.0
  0
VERTEX
  8
0
 10
14.604992113304258
 20
17.90699033022522
 30
0.0
  0
VERTEX
  8
0
 10
14.795492010434314
 20
17.8434903645152
 30
0.0
  0
VERTEX
  8
0
 10
14.985991907564369
 20
17.716490433095167
 30
0.0
  0
VERTEX
  8
0
 10
15.303491736114463
 20
17.462490570255092
 30
0.0
  0
VERTEX
  8
0
 10
15.430491667534499
 20
17.27199067312504
 30
0.0
  0
VERTEX
  8
0
 10
15.811491461794612
 20
17.017990810284964
 30
0.0
  0
VERTEX
  8
0
 10
15.874991427504629
 20
16.95449084457494
 30
0.0
  0
VERTEX
  8
0
 10
17.27199067312504
 20
15.493991633244518
 30
0.0
  0
VERTEX
  8
0
 10
17.27199067312504
 20
15.303491736114463
 30
0.0
  0
VERTEX
  8
0
 10
17.398990604545073
 20
15.176491804694425
 30
0.0
  0
VERTEX
  8
0
 10
17.462490570255092
 20
15.176491804694425
 30
0.0
  0
VERTEX
  8
0
 10
17.716490433095167
 20
14.795492010434314
 30
0.0
  0
VERTEX
  8
0
 10
18.033990261645258
 20
14.47799218188422
 30
0.0
  0
VERTEX
  8
0
 10
18.224490158775314
 20
14.160492353334128
 30
0.0
  0
VERTEX
  8
0
 10
18.541989987325408
 20
13.842992524784037
 30
0.0
  0
VERTEX
  8
0
 10
18.605489953035427
 20
13.588992661943962
 30
0.0
  0
VERTEX
  8
0
 10
18.986489747295536
 20
13.207992867683851
 30
0.0
  0
VERTEX
  8
0
 10
18.986489747295536
 20
13.080992936263813
 30
0.0
  0
VERTEX
  8
0
 10
19.240489610135608
 20
12.82699307342374
 30
0.0
  0
VERTEX
  8
0
 10
19.240489610135608
 20
12.699993142003702
 30
0.0
  0
VERTEX
  8
0
 10
19.62148940439572
 20
12.318993347743593
 30
0.0
  0
VERTEX
  8
0
 10
19.62148940439572
 20
12.191993416323555
 30
0.0
  0
VERTEX
  8
0
 10
19.811989301525777
 20
12.0014935191935
 30
0.0
  0
VERTEX
  8
0
 10
20.002489198655834
 20
11.683993690643407
 30
0.0
  0
VERTEX
  8
0
 10
20.065989164365853
 20
11.55699375922337
 30
0.0
  0
VERTEX
  8
0
 10
20.065989164365853
 20
11.429993827803333
 30
0.0
  0
VERTEX
  8
0
 10
20.44698895862596
 20
10.858494136413166
 30
0.0
  0
VERTEX
  8
0
 10
20.44698895862596
 20
10.731494204993128
 30
0.0
  0
VERTEX
  8
0
 10
20.63748885575602
 20
10.540994307863073
 30
0.0
  0
VERTEX
  8
0
 10
20.63748885575602
 20
10.413994376443036
 30
0.0
  0
VERTEX
  8
0
 10
20.764488787176056
 20
10.286994445022998
 30
0.0
  0
VERTEX
  8
0
 10
20.764488787176056
 20
10.159994513602964
 30
0.0
  0
VERTEX
  8
0
 10
21.081988615726146
 20
9.778994719342851
 30
0.0
  0
VERTEX
  8
0
 10
21.14548858143617
 20
9.334494959372723
 30
0.0
  0
VERTEX
  8
0
 10
21.272488512856206
 20
9.207495027952685
 30
0.0
  0
VERTEX
  8
0
 10
21.399488444276237
 20
8.762995267982555
 30
0.0
  0
VERTEX
  8
0
 10
21.526488375696275
 20
8.63599533656252
 30
0.0
  0
VERTEX
  8
0
 10
21.589988341406293
 20
8.508995405142482
 30
0.0
  0
VERTEX
  8
0
 10
21.653488307116312
 20
8.191495576592388
 30
0.0
  0
VERTEX
  8
0
 10
21.78048823853635
 20
7.873995748042296
 30
0.0
  0
VERTEX
  8
0
 10
21.907488169956387
 20
7.746995816622259
 30
0.0
  0
VERTEX
  8
0
 10
21.970988135666406
 20
7.556495919492203
 30
0.0
  0
VERTEX
  8
0
 10
22.034488101376425
 20
7.111996159522073
 30
0.0
  0
VERTEX
  8
0
 10
22.161488032796463
 20
6.921496262392019
 30
0.0
  0
VERTEX
  8
0
 10
22.161488032796463
 20
6.730996365261963
 30
0.0
  0
VERTEX
  8
0
 10
22.351987929926516
 20
6.41349653671187
 30
0.0
  0
VERTEX
  8
0
 10
22.415487895636534
 20
6.1594966738717964
 30
0.0
  0
VERTEX
  8
0
 10
22.478987861346553
 20
5.905496811031722
 30
0.0
  0
VERTEX
  8
0
 10
22.542487827056572
 20
5.397497085351573
 30
0.0
  0
VERTEX
  8
0
 10
22.66948775847661
 20
5.143497222511499
 30
0.0
  0
VERTEX
  8
0
 10
22.73298772418663
 20
4.825997393961407
 30
0.0
  0
VERTEX
  8
0
 10
22.859987655606666
 20
4.190997736861222
 30
0.0
  0
VERTEX
  8
0
 10
22.923487621316685
 20
3.809997942601111
 30
0.0
  0
VERTEX
  8
0
 10
22.986987587026704
 20
3.428998148341
 30
0.0
  0
VERTEX
  8
0
 10
22.986987587026704
 20
2.9209984226608516
 30
0.0
  0
VERTEX
  8
0
 10
23.11398751844674
 20
2.603498594110759
 30
0.0
  0
VERTEX
  8
0
 10
23.17748748415676
 20
1.7779990398805183
 30
0.0
  0
VERTEX
  8
0
 10
23.240987449866775
 20
0.5079997256801482
 30
0.0
  0
VERTEX
  8
0
 10
23.240987449866775
 20
0.12699993142003704
 30
0.0
  0
VERTEX
  8
0
 10
23.17748748415676
 20
-1.1429993827803333
 30
0.0
  0
VERTEX
  8
0
 10
23.11398751844674
 20
-1.841499005590537
 30
0.0
  0
VERTEX
  8
0
 10
23.050487552736723
 20
-2.539998628400741
 30
0.0
  0
VERTEX
  8
0
 10
22.923487621316685
 20
-2.9209984226608516
 30
0.0
  0
VERTEX
  8
0
 10
22.923487621316685
 20
-3.5559980797610367
 30
0.0
  0
VERTEX
  8
0
 10
22.859987655606666
 20
-3.936997874021148
 30
0.0
  0
VERTEX
  8
0
 10
22.796487689896647
 20
-4.381497633991278
 30
0.0
  0
VERTEX
  8
0
 10
22.542487827056572
 20
-5.079997256801482
 30
0.0
  0
VERTEX
  8
0
 10
22.542487827056572
 20
-5.587996982481629
 30
0.0
  0
VERTEX
  8
0
 10
22.478987861346553
 20
-5.905496811031722
 30
0.0
  0
VERTEX
  8
0
 10
22.288487964216497
 20
-6.667496399551944
 30
0.0
  0
VERTEX
  8
0
 10
22.161488032796463
 20
-6.921496262392019
 30
0.0
  0
VERTEX
  8
0
 10
22.161488032796463
 20
-7.175496125232092
 30
0.0
  0
VERTEX
  8
0
 10
22.034488101376425
 20
-7.4294959880721665
 30
0.0
  0
VERTEX
  8
0
 10
22.034488101376425
 20
-7.683495850912241
 30
0.0
  0
VERTEX
  8
0
 10
21.970988135666406
 20
-7.873995748042296
 30
0.0
  0
VERTEX
  8
0
 10
21.84398820424637
 20
-8.064495645172352
 30
0.0
  0
VERTEX
  8
0
 10
21.84398820424637
 20
-8.318495508012425
 30
0.0
  0
VERTEX
  8
0
 10
21.71698827282633
 20
-8.508995405142482
 30
0.0
  0
VERTEX
  8
0
 10
21.71698827282633
 20
-8.699495302272537
 30
0.0
  0
VERTEX
  8
0
 10
21.653488307116312
 20
-8.889995199402591
 30
0.0
  0
VERTEX
  8
0
 10
21.526488375696275
 20
-9.080495096532648
 30
0.0
  0
VERTEX
  8
0
 10
21.526488375696275
 20
-9.270994993662704
 30
0.0
  0
VERTEX
  8
0
 10
21.399488444276237
 20
-9.461494890792759
 30
0.0
  0
VERTEX
  8
0
 10
21.272488512856206
 20
-9.651994787922813
 30
0.0
  0
VERTEX
  8
0
 10
21.14548858143617
 20
-9.84249468505287
 30
0.0
  0
VERTEX
  8
0
 10
21.14548858143617
 20
-10.032994582182926
 30
0.0
  0
VERTEX
  8
0
 10
21.01848865001613
 20
-10.159994513602964
 30
0.0
  0
VERTEX
  8
0
 10
21.01848865001613
 20
-10.286994445022998
 30
0.0
  0
VERTEX
  8
0
 10
20.82798875288607
 20
-10.540994307863073
 30
0.0
  0
VERTEX
  8
0
 10
20.82798875288607
 20
-10.667994239283109
 30
0.0
  0
VERTEX
  8
0
 10
20.764488787176056
 20
-10.794994170703147
 30
0.0
  0
VERTEX
  8
0
 10
20.44698895862596
 20
-11.239493930673277
 30
0.0
  0
VERTEX
  8
0
 10
20.44698895862596
 20
-11.366493862093314
 30
0.0
  0
VERTEX
  8
0
 10
20.12948913007587
 20
-11.810993622063444
 30
0.0
  0
VERTEX
  8
0
 10
20.12948913007587
 20
-12.06499348490352
 30
0.0
  0
VERTEX
  8
0
 10
19.938989232945815
 20
-12.255493382033574
 30
0.0
  0
VERTEX
  8
0
 10
19.74848933581576
 20
-12.572993210583665
 30
0.0
  0
VERTEX
  8
0
 10
19.74848933581576
 20
-12.763493107713721
 30
0.0
  0
VERTEX
  8
0
 10
19.494489472975683
 20
-13.017492970553796
 30
0.0
  0
VERTEX
  8
0
 10
19.367489541555646
 20
-13.207992867683851
 30
0.0
  0
VERTEX
  8
0
 10
19.367489541555646
 20
-13.334992799103889
 30
0.0
  0
VERTEX
  8
0
 10
19.303989575845627
 20
-13.461992730523926
 30
0.0
  0
VERTEX
  8
0
 10
18.986489747295536
 20
-13.906492490494056
 30
0.0
  0
VERTEX
  8
0
 10
18.668989918745446
 20
-14.223992319044147
 30
0.0
  0
VERTEX
  8
0
 10
18.605489953035427
 20
-14.414492216174203
 30
0.0
  0
VERTEX
  8
0
 10
18.41499005590537
 20
-14.668492079014277
 30
0.0
  0
VERTEX
  8
0
 10
18.224490158775314
 20
-14.92249194185435
 30
0.0
  0
VERTEX
  8
0
 10
18.097490227355276
 20
-15.049491873274388
 30
0.0
  0
VERTEX
  8
0
 10
18.033990261645258
 20
-15.049491873274388
 30
0.0
  0
VERTEX
  8
0
 10
17.97049029593524
 20
-15.112991838984406
 30
0.0
  0
VERTEX
  8
0
 10
16.63699101602485
 20
-16.509991084604813
 30
0.0
  0
VERTEX
  8
0
 10
15.430491667534499
 20
-17.65299046738515
 30
0.0
  0
VERTEX
  8
0
 10
15.239991770404444
 20
-17.716490433095167
 30
0.0
  0
VERTEX
  8
0
 10
14.795492010434314
 20
-18.160990193065295
 30
0.0
  0
VERTEX
  8
0
 10
14.604992113304258
 20
-18.224490158775314
 30
0.0
  0
VERTEX
  8
0
 10
14.350992250464184
 20
-18.47849002161539
 30
0.0
  0
VERTEX
  8
0
 10
14.096992387624109
 20
-18.668989918745446
 30
0.0
  0
VERTEX
  8
0
 10
13.906492490494056
 20
-18.73248988445546
 30
0.0
  0
VERTEX
  8
0
 10
13.65249262765398
 20
-18.986489747295536
 30
0.0
  0
VERTEX
  8
0
 10
13.461992730523926
 20
-19.049989713005555
 30
0.0
  0
VERTEX
  8
0
 10
13.080992936263813
 20
-19.367489541555646
 30
0.0
  0
VERTEX
  8
0
 10
12.82699307342374
 20
-19.557989438685702
 30
0.0
  0
VERTEX
  8
0
 10
12.699993142003702
 20
-19.62148940439572
 30
0.0
  0
VERTEX
  8
0
 10
12.572993210583665
 20
-19.62148940439572
 30
0.0
  0
VERTEX
  8
0
 10
11.937993553483482
 20
-20.065989164365853
 30
0.0
  0
VERTEX
  8
0
 10
11.810993622063444
 20
-20.12948913007587
 30
0.0
  0
VERTEX
  8
0
 10
11.683993690643407
 20
-20.19298909578589
 30
0.0
  0
VERTEX
  8
0
 10
11.55699375922337
 20
-20.19298909578589
 30
0.0
  0
VERTEX
  8
0
 10
11.429993827803333
 20
-20.25648906149591
 30
0.0
  0
VERTEX
  8
0
 10
11.302993896383295
 20
-20.383488992915943
 30
0.0
  0
VERTEX
  8
0
 10
11.175993964963258
 20
-20.44698895862596
 30
0.0
  0
VERTEX
  8
0
 10
11.048994033543222
 20
-20.51048892433598
 30
0.0
  0
VERTEX
  8
0
 10
9.969494616472907
 20
-21.01848865001613
 30
0.0
  0
VERTEX
  8
0
 10
8.5724953708525
 20
-21.653488307116312
 30
0.0
  0
VERTEX
  8
0
 10
8.381995473722444
 20
-21.653488307116312
 30
0.0
  0
VERTEX
  8
0
 10
8.191495576592388
 20
-21.78048823853635
 30
0.0
  0
VERTEX
  8
0
 10
7.937495713752314
 20
-21.78048823853635
 30
0.0
  0
VERTEX
  8
0
 10
7.746995816622259
 20
-21.84398820424637
 30
0.0
  0
VERTEX
  8
0
 10
7.365996022362148
 20
-22.034488101376425
 30
0.0
  0
VERTEX
  8
0
 10
7.175496125232092
 20
-22.097988067086444
 30
0.0
  0
VERTEX
  8
0
 10
6.857996296682
 20
-22.097988067086444
 30
0.0
  0
VERTEX
  8
0
 10
6.667496399551944
 20
-22.22498799850648
 30
0.0
  0
VERTEX
  8
0
 10
6.41349653671187
 20
-22.288487964216497
 30
0.0
  0
VERTEX
  8
0
 10
6.1594966738717964
 20
-22.351987929926516
 30
0.0
  0
VERTEX
  8
0
 10
5.841996845321703
 20
-22.415487895636534
 30
0.0
  0
VERTEX
  8
0
 10
5.524497016771611
 20
-22.478987861346553
 30
0.0
  0
VERTEX
  8
0
 10
5.079997256801482
 20
-22.478987861346553
 30
0.0
  0
VERTEX
  8
0
 10
4.69899746254137
 20
-22.542487827056572
 30
0.0
  0
VERTEX
  8
0
 10
4.31799766828126
 20
-22.60598779276659
 30
0.0
  0
VERTEX
  8
0
 10
4.000497839731167
 20
-22.66948775847661
 30
0.0
  0
VERTEX
  8
0
 10
3.8734979083111294
 20
-22.796487689896647
 30
0.0
  0
VERTEX
  8
0
 10
3.746497976891092
 20
-22.859987655606666
 30
0.0
  0
VERTEX
  8
0
 10
2.7939984912408145
 20
-22.859987655606666
 30
0.0
  0
VERTEX
  8
0
 10
2.476498662690722
 20
-22.923487621316685
 30
0.0
  0
VERTEX
  8
0
 10
2.222498799850648
 20
-23.050487552736723
 30
0.0
  0
VERTEX
  8
0
 10
1.6509991084604814
 20
-23.050487552736723
 30
0.0
  0
VERTEX
  8
0
 10
1.079499417070315
 20
-23.17748748415676
 30
0.0
  0
SEQEND
  0
POLYLINE
  8
0
 66
1
 10
0.0
 20
0.0
 30
0.0
 70
1
  0
VERTEX
  8
0
 10
-0.8254995542302407
 20
-15.493991633244518
 30
0.0
  0
VERTEX
  8
0
 10
1.2064993484903517
 20
-15.493991633244518
 30
0.0
  0
VERTEX
  8
0
 10
1.4604992113304258
 20
-15.366991701824482
 30
0.0
  0
VERTEX
  8
0
 10
1.7779990398805183
 20
-15.366991701824482
 30
0.0
  0
VERTEX
  8
0
 10
1.841499005590537
 20
-15.239991770404444
 30
0.0
  0
VERTEX
  8
0
 10
1.968498937010574
 20
-15.176491804694425
 30
0.0
  0
VERTEX
  8
0
 10
2.476498662690722
 20
-15.112991838984406
 30
0.0
  0
VERTEX
  8
0
 10
2.6669985598207773
 20
-14.985991907564369
 30
0.0
  0
VERTEX
  8
0
 10
3.1749982855009256
 20
-14.985991907564369
 30
0.0
  0
VERTEX
  8
0
 10
3.428998148341
 20
-14.858991976144333
 30
0.0
  0
VERTEX
  8
0
 10
3.809997942601111
 20
-14.795492010434314
 30
0.0
  0
VERTEX
  8
0
 10
4.571997531121333
 20
-14.731992044724295
 30
0.0
  0
VERTEX
  8
0
 10
4.8894973596714255
 20
-14.604992113304258
 30
0.0
  0
VERTEX
  8
0
 10
5.3339971196415545
 20
-14.604992113304258
 30
0.0
  0
VERTEX
  8
0
 10
5.524497016771611
 20
-14.541492147594239
 30
0.0
  0
VERTEX
  8
0
 10
5.778496879611685
 20
-14.414492216174203
 30
0.0
  0
VERTEX
  8
0
 10
5.968996776741741
 20
-14.350992250464184
 30
0.0
  0
VERTEX
  8
0
 10
6.222996639581815
 20
-14.096992387624109
 30
0.0
  0
VERTEX
  8
0
 10
6.349996571001851
 20
-14.03349242191409
 30
0.0
  0
VERTEX
  8
0
 10
6.921496262392019
 20
-13.779492559074018
 30
0.0
  0
VERTEX
  8
0
 10
7.23899609094211
 20
-13.715992593364
 30
0.0
  0
VERTEX
  8
0
 10
7.492995953782184
 20
-13.525492696233943
 30
0.0
  0
VERTEX
  8
0
 10
7.619995885202222
 20
-13.461992730523926
 30
0.0
  0
VERTEX
  8
0
 10
7.873995748042296
 20
-13.398492764813907
 30
0.0
  0
VERTEX
  8
0
 10
8.064495645172352
 20
-13.334992799103889
 30
0.0
  0
VERTEX
  8
0
 10
8.254995542302407
 20
-13.144492901973832
 30
0.0
  0
VERTEX
  8
0
 10
8.445495439432463
 20
-13.080992936263813
 30
0.0
  0
VERTEX
  8
0
 10
8.762995267982555
 20
-12.699993142003702
 30
0.0
  0
VERTEX
  8
0
 10
8.889995199402591
 20
-12.572993210583665
 30
0.0
  0
VERTEX
  8
0
 10
8.95349516511261
 20
-12.572993210583665
 30
0.0
  0
VERTEX
  8
0
 10
9.080495096532648
 20
-12.44599327916363
 30
0.0
  0
VERTEX
  8
0
 10
9.080495096532648
 20
-12.382493313453612
 30
0.0
  0
VERTEX
  8
0
 10
9.207495027952685
 20
-12.255493382033574
 30
0.0
  0
VERTEX
  8
0
 10
9.39799492508274
 20
-12.191993416323555
 30
0.0
  0
VERTEX
  8
0
 10
9.651994787922813
 20
-11.874493587773463
 30
0.0
  0
VERTEX
  8
0
 10
10.22349447931298
 20
-11.366493862093314
 30
0.0
  0
VERTEX
  8
0
 10
10.350494410733017
 20
-11.048994033543222
 30
0.0
  0
VERTEX
  8
0
 10
11.239493930673277
 20
-10.159994513602964
 30
0.0
  0
VERTEX
  8
0
 10
11.493493793513352
 20
-9.84249468505287
 30
0.0
  0
VERTEX
  8
0
 10
11.683993690643407
 20
-9.588494822212796
 30
0.0
  0
VERTEX
  8
0
 10
11.747493656353425
 20
-9.461494890792759
 30
0.0
  0
VERTEX
  8
0
 10
11.747493656353425
 20
-9.207495027952685
 30
0.0
  0
VERTEX
  8
0
 10
11.810993622063444
 20
-9.016995130822629
 30
0.0
  0
VERTEX
  8
0
 10
11.874493587773463
 20
-8.889995199402591
 30
0.0
  0
VERTEX
  8
0
 10
12.06499348490352
 20
-8.699495302272537
 30
0.0
  0
VERTEX
  8
0
 10
13.017492970553796
 20
-7.810495782332278
 30
0.0
  0
VERTEX
  8
0
 10
13.080992936263813
 20
-7.619995885202222
 30
0.0
  0
VERTEX
  8
0
 10
13.398492764813907
 20
-7.302496056652129
 30
0.0
  0
VERTEX
  8
0
 10
13.461992730523926
 20
-7.111996159522073
 30
0.0
  0
VERTEX
  8
0
 10
13.65249262765398
 20
-6.921496262392019
 30
0.0
  0
VERTEX
  8
0
 10
13.65249262765398
 20
-6.794496330971981
 30
0.0
  0
VERTEX
  8
0
 10
14.03349242191409
 20
-6.095996708161778
 30
0.0
  0
VERTEX
  8
0
 10
14.223992319044147
 20
-5.778496879611685
 30
0.0
  0
VERTEX
  8
0
 10
14.414492216174203
 20
-5.587996982481629
 30
0.0
  0
VERTEX
  8
0
 10
14.47799218188422
 20
-5.397497085351573
 30
0.0
  0
VERTEX
  8
0
 10
14.47799218188422
 20
-5.143497222511499
 30
0.0
  0
VERTEX
  8
0
 10
14.604992113304258
 20
-4.825997393961407
 30
0.0
  0
VERTEX
  8
0
 10
14.795492010434314
 20
-4.635497496831352
 30
0.0
  0
VERTEX
  8
0
 10
14.795492010434314
 20
-4.444997599701296
 30
0.0
  0
VERTEX
  8
0
 10
14.92249194185435
 20
-4.31799766828126
 30
0.0
  0
VERTEX
  8
0
 10
14.92249194185435
 20
-3.809997942601111
 30
0.0
  0
VERTEX
  8
0
 10
14.985991907564369
 20
-3.4924981140510187
 30
0.0
  0
VERTEX
  8
0
 10
15.239991770404444
 20
-3.047998354080889
 30
0.0
  0
VERTEX
  8
0
 10
15.303491736114463
 20
-2.8574984569508333
 30
0.0
  0
VERTEX
  8
0
 10
15.366991701824482
 20
-2.539998628400741
 30
0.0
  0
VERTEX
  8
0
 10
15.366991701824482
 20
-1.968498937010574
 30
0.0
  0
VERTEX
  8
0
 10
15.303491736114463
 20
-1.9049989713005555
 30
0.0
  0
VERTEX
  8
0
 10
15.303491736114463
 20
-1.3334992799103886
 30
0.0
  0
VERTEX
  8
0
 10
15.366991701824482
 20
0.8254995542302407
 30
0.0
  0
VERTEX
  8
0
 10
15.493991633244518
 20
1.0159994513602963
 30
0.0
  0
VERTEX
  8
0
 10
15.493991633244518
 20
1.5874991427504628
 30
0.0
  0
VERTEX
  8
0
 10
15.366991701824482
 20
1.841499005590537
 30
0.0
  0
VERTEX
  8
0
 10
15.366991701824482
 20
2.095498868430611
 30
0.0
  0
VERTEX
  8
0
 10
15.239991770404444
 20
2.2859987655606666
 30
0.0
  0
VERTEX
  8
0
 10
15.176491804694425
 20
2.539998628400741
 30
0.0
  0
VERTEX
  8
0
 10
15.176491804694425
 20
3.1114983197909076
 30
0.0
  0
VERTEX
  8
0
 10
15.112991838984406
 20
3.428998148341
 30
0.0
  0
VERTEX
  8
0
 10
14.858991976144333
 20
4.254497702571241
 30
0.0
  0
VERTEX
  8
0
 10
14.731992044724295
 20
4.444997599701296
 30
0.0
  0
VERTEX
  8
0
 10
14.731992044724295
 20
4.762497428251389
 30
0.0
  0
VERTEX
  8
0
 10
14.668492079014277
 20
5.016497291091463
 30
0.0
  0
VERTEX
  8
0
 10
14.604992113304258
 20
5.143497222511499
 30
0.0
  0
VERTEX
  8
0
 10
14.414492216174203
 20
5.397497085351573
 30
0.0
  0
VERTEX
  8
0
 10
14.223992319044147
 20
5.905496811031722
 30
0.0
  0
VERTEX
  8
0
 10
13.969992456204075
 20
6.222996639581815
 30
0.0
  0
VERTEX
  8
0
 10
13.969992456204075
 20
6.349996571001851
 30
0.0
  0
VERTEX
  8
0
 10
13.842992524784037
 20
6.476996502421889
 30
0.0
  0
VERTEX
  8
0
 10
13.779492559074018
 20
6.6039964338419255
 30
0.0
  0
VERTEX
  8
0
 10
13.779492559074018
 20
6.9849962281020375
 30
0.0
  0
VERTEX
  8
0
 10
13.715992593364
 20
7.175496125232092
 30
0.0
  0
VERTEX
  8
0
 10
13.588992661943962
 20
7.302496056652129
 30
0.0
  0
VERTEX
  8
0
 10
13.588992661943962
 20
7.492995953782184
 30
0.0
  0
VERTEX
  8
0
 10
13.461992730523926
 20
7.619995885202222
 30
0.0
  0
VERTEX
  8
0
 10
13.398492764813907
 20
7.937495713752314
 30
0.0
  0
VERTEX
  8
0
 10
13.334992799103889
 20
8.064495645172352
 30
0.0
  0
VERTEX
  8
0
 10
13.27149283339387
 20
8.191495576592388
 30
0.0
  0
VERTEX
  8
0
 10
12.953993004843777
 20
8.5724953708525
 30
0.0
  0
VERTEX
  8
0
 10
12.44599327916363
 20
9.080495096532648
 30
0.0
  0
VERTEX
  8
0
 10
12.191993416323555
 20
9.588494822212796
 30
0.0
  0
VERTEX
  8
0
 10
12.06499348490352
 20
9.778994719342851
 30
0.0
  0
VERTEX
  8
0
 10
11.874493587773463
 20
10.032994582182926
 30
0.0
  0
VERTEX
  8
0
 10
11.429993827803333
 20
10.477494342153054
 30
0.0
  0
VERTEX
  8
0
 10
11.429993827803333
 20
10.667994239283109
 30
0.0
  0
VERTEX
  8
0
 10
11.175993964963258
 20
10.985494067833203
 30
0.0
  0
VERTEX
  8
0
 10
10.921994102123184
 20
11.239493930673277
 30
0.0
  0
VERTEX
  8
0
 10
10.731494204993128
 20
11.366493862093314
 30
0.0
  0
VERTEX
  8
0
 10
10.286994445022998
 20
11.55699375922337
 30
0.0
  0
VERTEX
  8
0
 10
9.588494822212796
 20
12.255493382033574
 30
0.0
  0
VERTEX
  8
0
 10
9.39799492508274
 20
12.318993347743593
 30
0.0
  0
VERTEX
  8
0
 10
9.207495027952685
 20
12.50949324487365
 30
0.0
  0
VERTEX
  8
0
 10
9.016995130822629
 20
12.50949324487365
 30
0.0
  0
VERTEX
  8
0
 10
8.889995199402591
 20
12.572993210583665
 30
0.0
  0
VERTEX
  8
0
 10
8.318495508012425
 20
12.890493039133759
 30
0.0
  0
VERTEX
  8
0
 10
8.000995679462333
 20
13.080992936263813
 30
0.0
  0
VERTEX
  8
0
 10
7.683495850912241
 20
13.398492764813907
 30
0.0
  0
VERTEX
  8
0
 10
7.556495919492203
 20
13.461992730523926
 30
0.0
  0
VERTEX
  8
0
 10
7.4294959880721665
 20
13.525492696233943
 30
0.0
  0
VERTEX
  8
0
 10
7.23899609094211
 20
13.525492696233943
 30
0.0
  0
VERTEX
  8
0
 10
6.540496468131907
 20
13.842992524784037
 30
0.0
  0
VERTEX
  8
0
 10
6.41349653671187
 20
13.906492490494056
 30
0.0
  0
VERTEX
  8
0
 10
6.286496605291832
 20
13.969992456204075
 30
0.0
  0
VERTEX
  8
0
 10
6.095996708161778
 20
14.096992387624109
 30
0.0
  0
VERTEX
  8
0
 10
5.905496811031722
 20
14.287492284754165
 30
0.0
  0
VERTEX
  8
0
 10
5.651496948191648
 20
14.47799218188422
 30
0.0
  0
VERTEX
  8
0
 10
5.397497085351573
 20
14.541492147594239
 30
0.0
  0
VERTEX
  8
0
 10
5.143497222511499
 20
14.604992113304258
 30
0.0
  0
VERTEX
  8
0
 10
4.762497428251389
 20
14.668492079014277
 30
0.0
  0
VERTEX
  8
0
 10
4.444997599701296
 20
14.668492079014277
 30
0.0
  0
VERTEX
  8
0
 10
4.063997805441185
 20
14.731992044724295
 30
0.0
  0
VERTEX
  8
0
 10
3.809997942601111
 20
14.795492010434314
 30
0.0
  0
VERTEX
  8
0
 10
3.4924981140510187
 20
14.985991907564369
 30
0.0
  0
VERTEX
  8
0
 10
2.539998628400741
 20
14.985991907564369
 30
0.0
  0
VERTEX
  8
0
 10
1.7144990741705
 20
15.049491873274388
 30
0.0
  0
VERTEX
  8
0
 10
1.2699993142003705
 20
15.176491804694425
 30
0.0
  0
VERTEX
  8
0
 10
-0.3174998285500926
 20
15.176491804694425
 30
0.0
  0
VERTEX
  8
0
 10
-1.2699993142003705
 20
15.112991838984406
 30
0.0
  0
VERTEX
  8
0
 10
-1.841499005590537
 20
14.985991907564369
 30
0.0
  0
VERTEX
  8
0
 10
-2.095498868430611
 20
14.858991976144333
 30
0.0
  0
VERTEX
  8
0
 10
-2.6669985598207773
 20
14.858991976144333
 30
0.0
  0
VERTEX
  8
0
 10
-2.8574984569508333
 20
14.731992044724295
 30
0.0
  0
VERTEX
  8
0
 10
-3.047998354080889
 20
14.731992044724295
 30
0.0
  0
VERTEX
  8
0
 10
-3.3654981826309815
 20
14.541492147594239
 30
0.0
  0
VERTEX
  8
0
 10
-3.809997942601111
 20
14.47799218188422
 30
0.0
  0
VERTEX
  8
0
 10
-3.936997874021148
 20
14.414492216174203
 30
0.0
  0
VERTEX
  8
0
 10
-4.063997805441185
 20
14.350992250464184
 30
0.0
  0
VERTEX
  8
0
 10
-4.190997736861222
 20
14.223992319044147
 30
0.0
  0
VERTEX
  8
0
 10
-4.31799766828126
 20
14.160492353334128
 30
0.0
  0
VERTEX
  8
0
 10
-4.635497496831352
 20
14.03349242191409
 30
0.0
  0
VERTEX
  8
0
 10
-4.825997393961407
 20
13.969992456204075
 30
0.0
  0
VERTEX
  8
0
 10
-5.016497291091463
 20
13.906492490494056
 30
0.0
  0
VERTEX
  8
0
 10
-5.270497153931537
 20
13.906492490494056
 30
0.0
  0
VERTEX
  8
0
 10
-5.460997051061592
 20
13.779492559074018
 30
0.0
  0
VERTEX
  8
0
 10
-5.778496879611685
 20
13.525492696233943
 30
0.0
  0
VERTEX
  8
0
 10
-6.286496605291832
 20
13.27149283339387
 30
0.0
  0
VERTEX
  8
0
 10
-6.667496399551944
 20
12.890493039133759
 30
0.0
  0
VERTEX
  8
0
 10
-7.111996159522073
 20
12.636493176293683
 30
0.0
  0
VERTEX
  8
0
 10
-7.683495850912241
 20
12.128493450613536
 30
0.0
  0
VERTEX
  8
0
 10
-8.000995679462333
 20
12.0014935191935
 30
0.0
  0
VERTEX
  8
0
 10
-8.318495508012425
 20
11.683993690643407
 30
0.0
  0
VERTEX
  8
0
 10
-8.508995405142482
 20
11.620493724933388
 30
0.0
  0
VERTEX
  8
0
 10
-9.143995062242666
 20
10.985494067833203
 30
0.0
  0
VERTEX
  8
0
 10
-9.334494959372723
 20
10.921994102123184
 30
0.0
  0
VERTEX
  8
0
 10
-9.651994787922813
 20
10.667994239283109
 30
0.0
  0
VERTEX
  8
0
 10
-9.778994719342851
 20
10.540994307863073
 30
0.0
  0
VERTEX
  8
0
 10
-10.159994513602964
 20
10.096494547892945
 30
0.0
  0
VERTEX
  8
0
 10
-10.286994445022998
 20
10.032994582182926
 30
0.0
  0
VERTEX
  8
0
 10
-10.477494342153054
 20
10.032994582182926
 30
0.0
  0
VERTEX
  8
0
 10
-10.921994102123184
 20
9.588494822212796
 30
0.0
  0
VERTEX
  8
0
 10
-11.55699375922337
 20
8.95349516511261
 30
0.0
  0
VERTEX
  8
0
 10
-11.683993690643407
 20
8.826495233692574
 30
0.0
  0
VERTEX
  8
0
 10
-11.810993622063444
 20
8.699495302272537
 30
0.0
  0
VERTEX
  8
0
 10
-12.0014935191935
 20
8.508995405142482
 30
0.0
  0
VERTEX
  8
0
 10
-12.318993347743593
 20
8.12799561088237
 30
0.0
  0
VERTEX
  8
0
 10
-12.318993347743593
 20
8.000995679462333
 30
0.0
  0
VERTEX
  8
0
 10
-12.763493107713721
 20
7.556495919492203
 30
0.0
  0
VERTEX
  8
0
 10
-12.763493107713721
 20
7.4294959880721665
 30
0.0
  0
VERTEX
  8
0
 10
-12.953993004843777
 20
7.175496125232092
 30
0.0
  0
VERTEX
  8
0
 10
-13.080992936263813
 20
6.9849962281020375
 30
0.0
  0
VERTEX
  8
0
 10
-13.398492764813907
 20
6.667496399551944
 30
0.0
  0
VERTEX
  8
0
 10
-13.461992730523926
 20
6.540496468131907
 30
0.0
  0
VERTEX
  8
0
 10
-13.525492696233943
 20
6.349996571001851
 30
0.0
  0
VERTEX
  8
0
 10
-13.588992661943962
 20
6.349996571001851
 30
0.0
  0
VERTEX
  8
0
 10
-13.65249262765398
 20
6.286496605291832
 30
0.0
  0
VERTEX
  8
0
 10
-13.842992524784037
 20
6.03249674245176
 30
0.0
  0
VERTEX
  8
0
 10
-14.03349242191409
 20
5.651496948191648
 30
0.0
  0
VERTEX
  8
0
 10
-14.096992387624109
 20
5.460997051061592
 30
0.0
  0
VERTEX
  8
0
 10
-14.096992387624109
 20
5.143497222511499
 30
0.0
  0
VERTEX
  8
0
 10
-14.287492284754165
 20
4.8894973596714255
 30
0.0
  0
VERTEX
  8
0
 10
-14.350992250464184
 20
4.571997531121333
 30
0.0
  0
VERTEX
  8
0
 10
-14.350992250464184
 20
4.190997736861222
 30
0.0
  0
VERTEX
  8
0
 10
-14.47799218188422
 20
4.063997805441185
 30
0.0
  0
VERTEX
  8
0
 10
-14.668492079014277
 20
3.4924981140510187
 30
0.0
  0
VERTEX
  8
0
 10
-14.731992044724295
 20
2.9844983883708704
 30
0.0
  0
VERTEX
  8
0
 10
-14.858991976144333
 20
2.15899883414063
 30
0.0
  0
VERTEX
  8
0
 10
-14.858991976144333
 20
1.3334992799103886
 30
0.0
  0
VERTEX
  8
0
 10
-14.985991907564369
 20
0.19049989713005555
 30
0.0
  0
VERTEX
  8
0
 10
-15.049491873274388
 20
0.12699993142003704
 30
0.0
  0
VERTEX
  8
0
 10
-15.049491873274388
 20
-0.3174998285500926
 30
0.0
  0
VERTEX
  8
0
 10
-14.92249194185435
 20
-0.4444997599701296
 30
0.0
  0
VERTEX
  8
0
 10
-14.985991907564369
 20
-1.1429993827803333
 30
0.0
  0
VERTEX
  8
0
 10
-14.985991907564369
 20
-1.4604992113304258
 30
0.0
  0
VERTEX
  8
0
 10
-14.858991976144333
 20
-1.7779990398805183
 30
0.0
  0
VERTEX
  8
0
 10
-14.92249194185435
 20
-2.095498868430611
 30
0.0
  0
VERTEX
  8
0
 10
-14.858991976144333
 20
-2.730498525530796
 30
0.0
  0
VERTEX
  8
0
 10
-14.668492079014277
 20
-3.2384982512109444
 30
0.0
  0
VERTEX
  8
0
 10
-14.604992113304258
 20
-3.4924981140510187
 30
0.0
  0
VERTEX
  8
0
 10
-14.604992113304258
 20
-4.000497839731167
 30
0.0
  0
VERTEX
  8
0
 10
-14.350992250464184
 20
-4.8894973596714255
 30
0.0
  0
VERTEX
  8
0
 10
-14.350992250464184
 20
-5.206997188221518
 30
0.0
  0
VERTEX
  8
0
 10
-14.287492284754165
 20
-5.460997051061592
 30
0.0
  0
VERTEX
  8
0
 10
-14.223992319044147
 20
-5.778496879611685
 30
0.0
  0
VERTEX
  8
0
 10
-14.096992387624109
 20
-5.905496811031722
 30
0.0
  0
VERTEX
  8
0
 10
-14.096992387624109
 20
-6.095996708161778
 30
0.0
  0
VERTEX
  8
0
 10
-13.842992524784037
 20
-6.41349653671187
 30
0.0
  0
VERTEX
  8
0
 10
-13.779492559074018
 20
-6.540496468131907
 30
0.0
  0
VERTEX
  8
0
 10
-13.779492559074018
 20
-6.730996365261963
 30
0.0
  0
VERTEX
  8
0
 10
-13.65249262765398
 20
-6.857996296682
 30
0.0
  0
VERTEX
  8
0
 10
-13.65249262765398
 20
-6.9849962281020375
 30
0.0
  0
VERTEX
  8
0
 10
-13.398492764813907
 20
-7.302496056652129
 30
0.0
  0
VERTEX
  8
0
 10
-13.398492764813907
 20
-7.492995953782184
 30
0.0
  0
VERTEX
  8
0
 10
-13.144492901973832
 20
-7.810495782332278
 30
0.0
  0
VERTEX
  8
0
 10
-12.953993004843777
 20
-8.064495645172352
 30
0.0
  0
VERTEX
  8
0
 10
-12.636493176293683
 20
-8.318495508012425
 30
0.0
  0
VERTEX
  8
0
 10
-12.636493176293683
 20
-8.508995405142482
 30
0.0
  0
VERTEX
  8
0
 10
-12.382493313453612
 20
-8.762995267982555
 30
0.0
  0
VERTEX
  8
0
 10
-12.382493313453612
 20
-8.889995199402591
 30
0.0
  0
VERTEX
  8
0
 10
-12.128493450613536
 20
-9.207495027952685
 30
0.0
  0
VERTEX
  8
0
 10
-11.810993622063444
 20
-9.461494890792759
 30
0.0
  0
VERTEX
  8
0
 10
-11.747493656353425
 20
-9.524994856502778
 30
0.0
  0
VERTEX
  8
0
 10
-11.302993896383295
 20
-10.032994582182926
 30
0.0
  0
VERTEX
  8
0
 10
-11.239493930673277
 20
-10.22349447931298
 30
0.0
  0
VERTEX
  8
0
 10
-11.175993964963258
 20
-10.22349447931298
 30
0.0
  0
VERTEX
  8
0
 10
-11.048994033543222
 20
-10.350494410733017
 30
0.0
  0
VERTEX
  8
0
 10
-10.858494136413166
 20
-10.413994376443036
 30
0.0
  0
VERTEX
  8
0
 10
-10.731494204993128
 20
-10.731494204993128
 30
0.0
  0
VERTEX
  8
0
 10
-10.540994307863073
 20
-10.985494067833203
 30
0.0
  0
VERTEX
  8
0
 10
-10.096494547892945
 20
-11.429993827803333
 30
0.0
  0
VERTEX
  8
0
 10
-9.905994650762889
 20
-11.55699375922337
 30
0.0
  0
VERTEX
  8
0
 10
-9.778994719342851
 20
-11.55699375922337
 30
0.0
  0
VERTEX
  8
0
 10
-9.651994787922813
 20
-11.620493724933388
 30
0.0
  0
VERTEX
  8
0
 10
-9.588494822212796
 20
-11.683993690643407
 30
0.0
  0
VERTEX
  8
0
 10
-9.334494959372723
 20
-12.06499348490352
 30
0.0
  0
VERTEX
  8
0
 10
-9.207495027952685
 20
-12.191993416323555
 30
0.0
  0
VERTEX
  8
0
 10
-8.95349516511261
 20
-12.318993347743593
 30
0.0
  0
VERTEX
  8
0
 10
-8.381995473722444
 20
-12.572993210583665
 30
0.0
  0
VERTEX
  8
0
 10
-8.12799561088237
 20
-12.82699307342374
 30
0.0
  0
VERTEX
  8
0
 10
-7.937495713752314
 20
-12.953993004843777
 30
0.0
  0
VERTEX
  8
0
 10
-7.619995885202222
 20
-13.144492901973832
 30
0.0
  0
VERTEX
  8
0
 10
-7.4294959880721665
 20
-13.144492901973832
 30
0.0
  0
VERTEX
  8
0
 10
-7.302496056652129
 20
-13.207992867683851
 30
0.0
  0
VERTEX
  8
0
 10
-7.175496125232092
 20
-13.27149283339387
 30
0.0
  0
VERTEX
  8
0
 10
-6.794496330971981
 20
-13.588992661943962
 30
0.0
  0
VERTEX
  8
0
 10
-5.841996845321703
 20
-14.096992387624109
 30
0.0
  0
VERTEX
  8
0
 10
-5.460997051061592
 20
-14.160492353334128
 30
0.0
  0
VERTEX
  8
0
 10
-5.270497153931537
 20
-14.223992319044147
 30
0.0
  0
VERTEX
  8
0
 10
-4.69899746254137
 20
-14.47799218188422
 30
0.0
  0
VERTEX
  8
0
 10
-4.571997531121333
 20
-14.541492147594239
 30
0.0
  0
VERTEX
  8
0
 10
-4.444997599701296
 20
-14.604992113304258
 30
0.0
  0
VERTEX
  8
0
 10
-4.190997736861222
 20
-14.858991976144333
 30
0.0
  0
VERTEX
  8
0
 10
-4.063997805441185
 20
-14.92249194185435
 30
0.0
  0
VERTEX
  8
0
 10
-3.809997942601111
 20
-14.92249194185435
 30
0.0
  0
VERTEX
  8
0
 10
-3.5559980797610367
 20
-15.049491873274388
 30
0.0
  0
VERTEX
  8
0
 10
-3.2384982512109444
 20
-15.112991838984406
 30
0.0
  0
VERTEX
  8
0
 10
-2.222498799850648
 20
-15.112991838984406
 30
0.0
  0
VERTEX
  8
0
 10
-1.968498937010574
 20
-15.176491804694425
 30
0.0
  0
VERTEX
  8
0
 10
-1.3334992799103886
 20
-15.430491667534499
 30
0.0
  0
SEQEND
  0
ENDSEC
  0
EOF
